<?xml version="1.0" encoding="UTF-8" standalone="no"?>
<svg width="130.881mm" height="29.2806mm"
 xmlns="http://www.w3.org/2000/svg" xmlns:xlink="http://www.w3.org/1999/xlink"  version="1.2" baseProfile="tiny">
<title>Qt SVG Document</title>
<desc>Generated with Qt</desc>
<defs>
</defs>
<g fill="none" stroke="black" stroke-width="1" fill-rule="evenodd" stroke-linecap="square" stroke-linejoin="bevel" >

<g fill="none" stroke="#000000" stroke-opacity="1" stroke-width="1" stroke-linecap="square" stroke-linejoin="bevel" transform="matrix(1,0,0,1,0,0)"
font-family="Ubuntu" font-size="11" font-weight="400" font-style="normal" 
>
</g>

<g fill="none" stroke="#000000" stroke-opacity="1" stroke-width="1" stroke-linecap="square" stroke-linejoin="bevel" transform="matrix(1,0,0,1,0,0)"
font-family="Ubuntu" font-size="11" font-weight="400" font-style="normal" 
>
</g>

<g fill="none" stroke="#000000" stroke-opacity="1" stroke-width="1" stroke-linecap="square" stroke-linejoin="bevel" transform="matrix(1.99339,0,0,1.99339,0.00087709,79.3288)"
font-family="Ubuntu" font-size="11" font-weight="400" font-style="normal" 
>
</g>

<g fill="#ffffff" fill-opacity="1" stroke="none" transform="matrix(1.99339,0,0,1.99339,0.00087709,79.3288)"
font-family="Ubuntu" font-size="11" font-weight="400" font-style="normal" 
>
<rect x="-0.00044" y="-39.796" width="185.288" height="41.6377"/>
</g>

<g fill="none" stroke="#000000" stroke-opacity="1" stroke-width="1" stroke-linecap="square" stroke-linejoin="bevel" transform="matrix(1.99339,0,0,1.99339,0.00087709,79.3288)"
font-family="Ubuntu" font-size="11" font-weight="400" font-style="normal" 
>
</g>

<g fill="none" stroke="#000000" stroke-opacity="1" stroke-width="1" stroke-linecap="square" stroke-linejoin="bevel" transform="matrix(1.99339,0,0,1.99339,0.00087709,79.3288)"
font-family="Ubuntu" font-size="11" font-weight="400" font-style="normal" 
>
</g>

<g fill="none" stroke="#000000" stroke-opacity="1" stroke-width="1" stroke-linecap="square" stroke-linejoin="bevel" transform="matrix(1.99339,0,0,1.99339,0.00087709,79.3288)"
font-family="Ubuntu" font-size="11" font-weight="400" font-style="normal" 
>
</g>

<g fill="none" stroke="#000000" stroke-opacity="1" stroke-width="1" stroke-linecap="square" stroke-linejoin="bevel" transform="matrix(1.99339,0,0,1.99339,0.00087709,79.3288)"
font-family="Ubuntu" font-size="11" font-weight="400" font-style="normal" 
>
</g>

<g fill="none" stroke="#000000" stroke-opacity="1" stroke-width="1" stroke-linecap="square" stroke-linejoin="round" transform="matrix(1.99339,0,0,1.99339,0.00087709,79.3288)"
font-family="Ubuntu" font-size="11" font-weight="400" font-style="normal" 
>
<ellipse cx="156.69" cy="-21.796" rx="28.0973" ry="17.5"/>
</g>

<g fill="none" stroke="#000000" stroke-opacity="1" stroke-width="1" stroke-linecap="square" stroke-linejoin="bevel" transform="matrix(1.99339,0,0,1.99339,0.00087709,79.3288)"
font-family="Ubuntu" font-size="11" font-weight="400" font-style="normal" 
>
</g>

<g fill="none" stroke="#000000" stroke-opacity="1" stroke-width="1" stroke-linecap="square" stroke-linejoin="bevel" transform="matrix(1.99339,0,0,1.99339,284.78,21.9272)"
font-family="Ubuntu" font-size="11" font-weight="400" font-style="normal" 
>
</g>

<g fill="none" stroke="#000000" stroke-opacity="1" stroke-width="1" stroke-linecap="square" stroke-linejoin="bevel" transform="matrix(1.99339,0,0,1.99339,284.78,21.9272)"
font-family="sans" font-size="11" font-weight="100" font-style="normal" 
>
</g>

<g fill="#000000" fill-opacity="1" stroke="#000000" stroke-opacity="1" stroke-width="1" stroke-linecap="square" stroke-linejoin="round" transform="matrix(1.99339,0,0,1.99339,284.78,21.9272)"
font-family="sans" font-size="11" font-weight="100" font-style="normal" 
>
<path vector-effect="none" fill-rule="nonzero" d="M2.79688,2.98438 L3.70313,2.98438 L0.90625,12.0156 L0,12.0156 L2.79688,2.98438 M5.70313,10.0938 L5.70313,13.2813 L4.70313,13.2813 L4.70313,4.98438 L5.70313,4.98438 L5.70313,5.89063 C5.90104,5.53646 6.15885,5.27344 6.47656,5.10156 C6.79427,4.92969 7.17708,4.84375 7.625,4.84375 C8.35417,4.84375 8.94531,5.13281 9.39844,5.71094 C9.85156,6.28906 10.0781,7.05208 10.0781,8 C10.0781,8.94792 9.85156,9.71094 9.39844,10.2891 C8.94531,10.8672 8.35417,11.1563 7.625,11.1563 C7.17708,11.1563 6.79427,11.0703 6.47656,10.8984 C6.15885,10.7266 5.90104,10.4583 5.70313,10.0938 M9.0625,8 C9.0625,7.27083 8.91146,6.70052 8.60938,6.28906 C8.30729,5.8776 7.89583,5.67188 7.375,5.67188 C6.85417,5.67188 6.44531,5.8776 6.14844,6.28906 C5.85156,6.70052 5.70313,7.27083 5.70313,8 C5.70313,8.72917 5.85156,9.29948 6.14844,9.71094 C6.44531,10.1224 6.85417,10.3281 7.375,10.3281 C7.89583,10.3281 8.30729,10.1224 8.60938,9.71094 C8.91146,9.29948 9.0625,8.72917 9.0625,8 M11.7031,4.98438 L12.7031,4.98438 L12.7031,11 L11.7031,11 L11.7031,4.98438 M11.7031,2.64063 L12.7031,2.64063 L12.7031,3.89063 L11.7031,3.89063 L11.7031,2.64063 M19.75,7.375 L19.75,11 L18.7656,11 L18.7656,7.40625 C18.7656,6.83333 18.6563,6.40625 18.4375,6.125 C18.2188,5.84375 17.8854,5.70313 17.4375,5.70313 C16.9063,5.70313 16.487,5.8724 16.1797,6.21094 C15.8724,6.54948 15.7188,7.01042 15.7188,7.59375 L15.7188,11 L14.7188,11 L14.7188,4.98438 L15.7188,4.98438 L15.7188,5.92188 C15.9479,5.55729 16.224,5.28646 16.5469,5.10938 C16.8698,4.93229 17.2396,4.84375 17.6563,4.84375 C18.3438,4.84375 18.8646,5.05729 19.2188,5.48438 C19.5729,5.91146 19.75,6.54167 19.75,7.375 M25.6875,7.92188 C25.6875,7.20313 25.5391,6.64844 25.2422,6.25781 C24.9453,5.86719 24.5313,5.67188 24,5.67188 C23.4688,5.67188 23.0547,5.86719 22.7578,6.25781 C22.4609,6.64844 22.3125,7.20313 22.3125,7.92188 C22.3125,8.63021 22.4609,9.18229 22.7578,9.57813 C23.0547,9.97396 23.4688,10.1719 24,10.1719 C24.5313,10.1719 24.9453,9.97396 25.2422,9.57813 C25.5391,9.18229 25.6875,8.63021 25.6875,7.92188 M26.6719,10.25 C26.6719,11.2813 26.4453,12.0443 25.9922,12.5391 C25.5391,13.0339 24.8438,13.2813 23.9063,13.2813 C23.5521,13.2813 23.2214,13.2552 22.9141,13.2031 C22.6068,13.151 22.3073,13.0729 22.0156,12.9688 L22.0156,12.0156 C22.3073,12.1719 22.5938,12.2865 22.875,12.3594 C23.1563,12.4323 23.4479,12.4688 23.75,12.4688 C24.3958,12.4688 24.8802,12.2995 25.2031,11.9609 C25.526,11.6224 25.6875,11.1146 25.6875,10.4375 L25.6875,9.9375 C25.4792,10.2917 25.2161,10.5573 24.8984,10.7344 C24.5807,10.9115 24.1979,11 23.75,11 C23.0104,11 22.4167,10.7188 21.9688,10.1563 C21.5208,9.59375 21.2969,8.84896 21.2969,7.92188 C21.2969,6.99479 21.5208,6.25 21.9688,5.6875 C22.4167,5.125 23.0104,4.84375 23.75,4.84375 C24.1979,4.84375 24.5807,4.92969 24.8984,5.10156 C25.2161,5.27344 25.4792,5.53646 25.6875,5.89063 L25.6875,4.98438 L26.6719,4.98438 L26.6719,10.25"/>
</g>

<g fill="none" stroke="#000000" stroke-opacity="1" stroke-width="1" stroke-linecap="square" stroke-linejoin="bevel" transform="matrix(1.99339,0,0,1.99339,284.78,21.9272)"
font-family="sans" font-size="11" font-weight="100" font-style="normal" 
>
</g>

<g fill="none" stroke="#000000" stroke-opacity="1" stroke-width="1" stroke-linecap="square" stroke-linejoin="bevel" transform="matrix(1.99339,0,0,1.99339,284.78,21.9272)"
font-family="Ubuntu" font-size="11" font-weight="400" font-style="normal" 
>
</g>

<g fill="none" stroke="#000000" stroke-opacity="1" stroke-width="1" stroke-linecap="square" stroke-linejoin="bevel" transform="matrix(1.99339,0,0,1.99339,0.00087709,79.3288)"
font-family="Ubuntu" font-size="11" font-weight="400" font-style="normal" 
>
</g>

<g fill="none" stroke="#000000" stroke-opacity="1" stroke-width="1" stroke-linecap="square" stroke-linejoin="bevel" transform="matrix(1.99339,0,0,1.99339,0.00087709,79.3288)"
font-family="Ubuntu" font-size="11" font-weight="400" font-style="normal" 
>
</g>

<g fill="none" stroke="#000000" stroke-opacity="1" stroke-width="1" stroke-linecap="square" stroke-linejoin="bevel" transform="matrix(1.99339,0,0,1.99339,0.00087709,79.3288)"
font-family="Ubuntu" font-size="11" font-weight="400" font-style="normal" 
>
</g>

<g fill="none" stroke="#000000" stroke-opacity="1" stroke-width="1" stroke-linecap="square" stroke-linejoin="round" transform="matrix(1.99339,0,0,1.99339,0.00087709,79.3288)"
font-family="Ubuntu" font-size="11" font-weight="400" font-style="normal" 
>
<ellipse cx="30.547" cy="-21.796" rx="30.0474" ry="17.5"/>
</g>

<g fill="none" stroke="#000000" stroke-opacity="1" stroke-width="1" stroke-linecap="square" stroke-linejoin="bevel" transform="matrix(1.99339,0,0,1.99339,0.00087709,79.3288)"
font-family="Ubuntu" font-size="11" font-weight="400" font-style="normal" 
>
</g>

<g fill="none" stroke="#000000" stroke-opacity="1" stroke-width="1" stroke-linecap="square" stroke-linejoin="bevel" transform="matrix(1.99339,0,0,1.99339,29.6683,21.9272)"
font-family="Ubuntu" font-size="11" font-weight="400" font-style="normal" 
>
</g>

<g fill="none" stroke="#000000" stroke-opacity="1" stroke-width="1" stroke-linecap="square" stroke-linejoin="bevel" transform="matrix(1.99339,0,0,1.99339,29.6683,21.9272)"
font-family="sans" font-size="11" font-weight="100" font-style="normal" 
>
</g>

<g fill="#000000" fill-opacity="1" stroke="#000000" stroke-opacity="1" stroke-width="1" stroke-linecap="square" stroke-linejoin="round" transform="matrix(1.99339,0,0,1.99339,29.6683,21.9272)"
font-family="sans" font-size="11" font-weight="100" font-style="normal" 
>
<path vector-effect="none" fill-rule="nonzero" d="M2.79688,2.98438 L3.70313,2.98438 L0.90625,12.0156 L0,12.0156 L2.79688,2.98438 M5.70313,10.0938 L5.70313,13.2813 L4.70313,13.2813 L4.70313,4.98438 L5.70313,4.98438 L5.70313,5.89063 C5.90104,5.53646 6.15885,5.27344 6.47656,5.10156 C6.79427,4.92969 7.17708,4.84375 7.625,4.84375 C8.35417,4.84375 8.94531,5.13281 9.39844,5.71094 C9.85156,6.28906 10.0781,7.05208 10.0781,8 C10.0781,8.94792 9.85156,9.71094 9.39844,10.2891 C8.94531,10.8672 8.35417,11.1563 7.625,11.1563 C7.17708,11.1563 6.79427,11.0703 6.47656,10.8984 C6.15885,10.7266 5.90104,10.4583 5.70313,10.0938 M9.0625,8 C9.0625,7.27083 8.91146,6.70052 8.60938,6.28906 C8.30729,5.8776 7.89583,5.67188 7.375,5.67188 C6.85417,5.67188 6.44531,5.8776 6.14844,6.28906 C5.85156,6.70052 5.70313,7.27083 5.70313,8 C5.70313,8.72917 5.85156,9.29948 6.14844,9.71094 C6.44531,10.1224 6.85417,10.3281 7.375,10.3281 C7.89583,10.3281 8.30729,10.1224 8.60938,9.71094 C8.91146,9.29948 9.0625,8.72917 9.0625,8 M14.0469,5.67188 C13.5156,5.67188 13.0964,5.88021 12.7891,6.29688 C12.4818,6.71354 12.3281,7.28125 12.3281,8 C12.3281,8.71875 12.4792,9.28385 12.7813,9.69531 C13.0833,10.1068 13.5052,10.3125 14.0469,10.3125 C14.5677,10.3125 14.9818,10.1068 15.2891,9.69531 C15.5964,9.28385 15.75,8.71875 15.75,8 C15.75,7.28125 15.5964,6.71354 15.2891,6.29688 C14.9818,5.88021 14.5677,5.67188 14.0469,5.67188 M14.0469,4.84375 C14.901,4.84375 15.5729,5.1224 16.0625,5.67969 C16.5521,6.23698 16.7969,7.01042 16.7969,8 C16.7969,8.97917 16.5521,9.75 16.0625,10.3125 C15.5729,10.875 14.901,11.1563 14.0469,11.1563 C13.1823,11.1563 12.5052,10.875 12.0156,10.3125 C11.526,9.75 11.2813,8.97917 11.2813,8 C11.2813,7.01042 11.526,6.23698 12.0156,5.67969 C12.5052,5.1224 13.1823,4.84375 14.0469,4.84375 M23.4219,7.375 L23.4219,11 L22.4375,11 L22.4375,7.40625 C22.4375,6.83333 22.3281,6.40625 22.1094,6.125 C21.8906,5.84375 21.5573,5.70313 21.1094,5.70313 C20.5781,5.70313 20.1589,5.8724 19.8516,6.21094 C19.5443,6.54948 19.3906,7.01042 19.3906,7.59375 L19.3906,11 L18.3906,11 L18.3906,4.98438 L19.3906,4.98438 L19.3906,5.92188 C19.6198,5.55729 19.8958,5.28646 20.2188,5.10938 C20.5417,4.93229 20.9115,4.84375 21.3281,4.84375 C22.0156,4.84375 22.5365,5.05729 22.8906,5.48438 C23.2448,5.91146 23.4219,6.54167 23.4219,7.375 M29.3594,7.92188 C29.3594,7.20313 29.2109,6.64844 28.9141,6.25781 C28.6172,5.86719 28.2031,5.67188 27.6719,5.67188 C27.1406,5.67188 26.7266,5.86719 26.4297,6.25781 C26.1328,6.64844 25.9844,7.20313 25.9844,7.92188 C25.9844,8.63021 26.1328,9.18229 26.4297,9.57813 C26.7266,9.97396 27.1406,10.1719 27.6719,10.1719 C28.2031,10.1719 28.6172,9.97396 28.9141,9.57813 C29.2109,9.18229 29.3594,8.63021 29.3594,7.92188 M30.3438,10.25 C30.3438,11.2813 30.1172,12.0443 29.6641,12.5391 C29.2109,13.0339 28.5156,13.2813 27.5781,13.2813 C27.224,13.2813 26.8932,13.2552 26.5859,13.2031 C26.2786,13.151 25.9792,13.0729 25.6875,12.9688 L25.6875,12.0156 C25.9792,12.1719 26.2656,12.2865 26.5469,12.3594 C26.8281,12.4323 27.1198,12.4688 27.4219,12.4688 C28.0677,12.4688 28.5521,12.2995 28.875,11.9609 C29.1979,11.6224 29.3594,11.1146 29.3594,10.4375 L29.3594,9.9375 C29.151,10.2917 28.888,10.5573 28.5703,10.7344 C28.2526,10.9115 27.8698,11 27.4219,11 C26.6823,11 26.0885,10.7188 25.6406,10.1563 C25.1927,9.59375 24.9688,8.84896 24.9688,7.92188 C24.9688,6.99479 25.1927,6.25 25.6406,5.6875 C26.0885,5.125 26.6823,4.84375 27.4219,4.84375 C27.8698,4.84375 28.2526,4.92969 28.5703,5.10156 C28.888,5.27344 29.151,5.53646 29.3594,5.89063 L29.3594,4.98438 L30.3438,4.98438 L30.3438,10.25"/>
</g>

<g fill="none" stroke="#000000" stroke-opacity="1" stroke-width="1" stroke-linecap="square" stroke-linejoin="bevel" transform="matrix(1.99339,0,0,1.99339,29.6683,21.9272)"
font-family="sans" font-size="11" font-weight="100" font-style="normal" 
>
</g>

<g fill="none" stroke="#000000" stroke-opacity="1" stroke-width="1" stroke-linecap="square" stroke-linejoin="bevel" transform="matrix(1.99339,0,0,1.99339,29.6683,21.9272)"
font-family="Ubuntu" font-size="11" font-weight="400" font-style="normal" 
>
</g>

<g fill="none" stroke="#000000" stroke-opacity="1" stroke-width="1" stroke-linecap="square" stroke-linejoin="bevel" transform="matrix(1.99339,0,0,1.99339,0.00087709,79.3288)"
font-family="Ubuntu" font-size="11" font-weight="400" font-style="normal" 
>
</g>

<g fill="none" stroke="#000000" stroke-opacity="1" stroke-width="1" stroke-linecap="square" stroke-linejoin="bevel" transform="matrix(1.99339,0,0,1.99339,0.00087709,79.3288)"
font-family="Ubuntu" font-size="11" font-weight="400" font-style="normal" 
>
</g>

<g fill="none" stroke="#000000" stroke-opacity="1" stroke-width="1" stroke-linecap="square" stroke-linejoin="bevel" transform="matrix(1.99339,0,0,1.99339,0.00087709,79.3288)"
font-family="Ubuntu" font-size="11" font-weight="400" font-style="normal" 
>
</g>

<g fill="none" stroke="#000000" stroke-opacity="1" stroke-width="1" stroke-linecap="square" stroke-linejoin="round" transform="matrix(1.99339,0,0,1.99339,0.00087709,79.3288)"
font-family="Ubuntu" font-size="11" font-weight="400" font-style="normal" 
>
<path vector-effect="none" fill-rule="evenodd" d="M135.63,-9.4213 C130.69,-7.0966 125.34,-5.0149 120.09,-3.7957 C98.017,1.3398 91.223,1.1162 69.095,-3.7957 C66.783,-4.3089 64.445,-4.9758 62.125,-5.75 "/>
</g>

<g fill="none" stroke="#000000" stroke-opacity="1" stroke-width="1" stroke-linecap="square" stroke-linejoin="bevel" transform="matrix(1.99339,0,0,1.99339,0.00087709,79.3288)"
font-family="Ubuntu" font-size="11" font-weight="400" font-style="normal" 
>
</g>

<g fill="none" stroke="#000000" stroke-opacity="1" stroke-width="1" stroke-linecap="square" stroke-linejoin="bevel" transform="matrix(1.99339,0,0,1.99339,135.055,42.8578)"
font-family="Ubuntu" font-size="11" font-weight="400" font-style="normal" 
>
</g>

<g fill="none" stroke="#000000" stroke-opacity="1" stroke-width="1" stroke-linecap="square" stroke-linejoin="bevel" transform="matrix(1.99339,0,0,1.99339,135.055,42.8578)"
font-family="sans" font-size="11" font-weight="100" font-style="normal" 
>
</g>

<g fill="#000000" fill-opacity="1" stroke="#000000" stroke-opacity="1" stroke-width="1" stroke-linecap="square" stroke-linejoin="round" transform="matrix(1.99339,0,0,1.99339,135.055,42.8578)"
font-family="sans" font-size="11" font-weight="100" font-style="normal" 
>
<path vector-effect="none" fill-rule="nonzero" d="M2.79688,2.98438 L3.70313,2.98438 L0.90625,12.0156 L0,12.0156 L2.79688,2.98438 M8.21875,5.90625 C8.11458,5.84375 7.9974,5.79688 7.86719,5.76563 C7.73698,5.73438 7.59375,5.71875 7.4375,5.71875 C6.875,5.71875 6.44531,5.90104 6.14844,6.26563 C5.85156,6.63021 5.70313,7.15104 5.70313,7.82813 L5.70313,11 L4.70313,11 L4.70313,4.98438 L5.70313,4.98438 L5.70313,5.92188 C5.90104,5.55729 6.16667,5.28646 6.5,5.10938 C6.83333,4.93229 7.23958,4.84375 7.71875,4.84375 C7.79167,4.84375 7.86719,4.84635 7.94531,4.85156 C8.02344,4.85677 8.11458,4.86979 8.21875,4.89063 L8.21875,5.90625 M11.9844,7.96875 C11.1927,7.96875 10.6432,8.0625 10.3359,8.25 C10.0286,8.4375 9.875,8.75 9.875,9.1875 C9.875,9.53125 9.98958,9.80729 10.2188,10.0156 C10.4479,10.224 10.7604,10.3281 11.1563,10.3281 C11.7083,10.3281 12.1484,10.1328 12.4766,9.74219 C12.8047,9.35156 12.9688,8.83854 12.9688,8.20313 L12.9688,7.96875 L11.9844,7.96875 M13.9531,7.5625 L13.9531,11 L12.9688,11 L12.9688,10.0938 C12.75,10.4583 12.4714,10.7266 12.1328,10.8984 C11.7943,11.0703 11.3802,11.1563 10.8906,11.1563 C10.276,11.1563 9.78646,10.9844 9.42188,10.6406 C9.05729,10.2969 8.875,9.83333 8.875,9.25 C8.875,8.57292 9.10156,8.0625 9.55469,7.71875 C10.0078,7.375 10.6875,7.20313 11.5938,7.20313 L12.9688,7.20313 L12.9688,7.10938 C12.9688,6.65104 12.8203,6.29688 12.5234,6.04688 C12.2266,5.79688 11.8073,5.67188 11.2656,5.67188 C10.9219,5.67188 10.5859,5.71354 10.2578,5.79688 C9.92969,5.88021 9.61458,6.00521 9.3125,6.17188 L9.3125,5.26563 C9.67708,5.11979 10.0313,5.01302 10.375,4.94531 C10.7188,4.8776 11.0469,4.84375 11.3594,4.84375 C12.2344,4.84375 12.8854,5.06771 13.3125,5.51563 C13.7396,5.96354 13.9531,6.64583 13.9531,7.5625 M16.5781,8 C16.5781,8.72917 16.7292,9.29948 17.0313,9.71094 C17.3333,10.1224 17.7448,10.3281 18.2656,10.3281 C18.7865,10.3281 19.1979,10.1224 19.5,9.71094 C19.8021,9.29948 19.9531,8.72917 19.9531,8 C19.9531,7.27083 19.8021,6.70052 19.5,6.28906 C19.1979,5.8776 18.7865,5.67188 18.2656,5.67188 C17.7448,5.67188 17.3333,5.8776 17.0313,6.28906 C16.7292,6.70052 16.5781,7.27083 16.5781,8 M19.9531,10.0938 C19.7448,10.4583 19.4818,10.7266 19.1641,10.8984 C18.8464,11.0703 18.4635,11.1563 18.0156,11.1563 C17.2969,11.1563 16.7083,10.8672 16.25,10.2891 C15.7917,9.71094 15.5625,8.94792 15.5625,8 C15.5625,7.05208 15.7917,6.28906 16.25,5.71094 C16.7083,5.13281 17.2969,4.84375 18.0156,4.84375 C18.4635,4.84375 18.8464,4.92969 19.1641,5.10156 C19.4818,5.27344 19.7448,5.53646 19.9531,5.89063 L19.9531,4.98438 L20.9375,4.98438 L20.9375,13.2813 L19.9531,13.2813 L19.9531,10.0938 M22.8594,8.625 L22.8594,4.98438 L23.8438,4.98438 L23.8438,8.59375 C23.8438,9.15625 23.9557,9.58073 24.1797,9.86719 C24.4036,10.1536 24.7344,10.2969 25.1719,10.2969 C25.7135,10.2969 26.138,10.1276 26.4453,9.78906 C26.7526,9.45052 26.9063,8.98438 26.9063,8.39063 L26.9063,4.98438 L27.8906,4.98438 L27.8906,11 L26.9063,11 L26.9063,10.0781 C26.6667,10.4427 26.388,10.7135 26.0703,10.8906 C25.7526,11.0677 25.3854,11.1563 24.9688,11.1563 C24.2813,11.1563 23.7578,10.9401 23.3984,10.5078 C23.0391,10.0755 22.8594,9.44792 22.8594,8.625 M35.0781,7.75 L35.0781,8.23438 L30.5313,8.23438 C30.5729,8.91146 30.776,9.42708 31.1406,9.78125 C31.5052,10.1354 32.0156,10.3125 32.6719,10.3125 C33.0573,10.3125 33.4271,10.2656 33.7813,10.1719 C34.1354,10.0781 34.4896,9.94271 34.8438,9.76563 L34.8438,10.6875 C34.4896,10.8438 34.125,10.9609 33.75,11.0391 C33.375,11.1172 33,11.1563 32.625,11.1563 C31.6563,11.1563 30.8932,10.8776 30.3359,10.3203 C29.7786,9.76302 29.5,9.00521 29.5,8.04688 C29.5,7.06771 29.7656,6.28906 30.2969,5.71094 C30.8281,5.13281 31.5469,4.84375 32.4531,4.84375 C33.2552,4.84375 33.8932,5.10417 34.3672,5.625 C34.8411,6.14583 35.0781,6.85417 35.0781,7.75 M34.0781,7.45313 C34.0781,6.91146 33.9297,6.47917 33.6328,6.15625 C33.3359,5.83333 32.9427,5.67188 32.4531,5.67188 C31.901,5.67188 31.4609,5.82813 31.1328,6.14063 C30.8047,6.45313 30.6146,6.89063 30.5625,7.45313 L34.0781,7.45313 M37.6719,3.28125 L37.6719,4.98438 L39.7031,4.98438 L39.7031,5.75 L37.6719,5.75 L37.6719,9.01563 C37.6719,9.50521 37.7396,9.82031 37.875,9.96094 C38.0104,10.1016 38.2813,10.1719 38.6875,10.1719 L39.7031,10.1719 L39.7031,11 L38.6875,11 C37.9271,11 37.401,10.8568 37.1094,10.5703 C36.8177,10.2839 36.6719,9.76563 36.6719,9.01563 L36.6719,5.75 L35.9531,5.75 L35.9531,4.98438 L36.6719,4.98438 L36.6719,3.28125 L37.6719,3.28125 M43.7344,7.96875 C42.9427,7.96875 42.3932,8.0625 42.0859,8.25 C41.7786,8.4375 41.625,8.75 41.625,9.1875 C41.625,9.53125 41.7396,9.80729 41.9688,10.0156 C42.1979,10.224 42.5104,10.3281 42.9063,10.3281 C43.4583,10.3281 43.8984,10.1328 44.2266,9.74219 C44.5547,9.35156 44.7188,8.83854 44.7188,8.20313 L44.7188,7.96875 L43.7344,7.96875 M45.7031,7.5625 L45.7031,11 L44.7188,11 L44.7188,10.0938 C44.5,10.4583 44.2214,10.7266 43.8828,10.8984 C43.5443,11.0703 43.1302,11.1563 42.6406,11.1563 C42.026,11.1563 41.5365,10.9844 41.1719,10.6406 C40.8073,10.2969 40.625,9.83333 40.625,9.25 C40.625,8.57292 40.8516,8.0625 41.3047,7.71875 C41.7578,7.375 42.4375,7.20313 43.3438,7.20313 L44.7188,7.20313 L44.7188,7.10938 C44.7188,6.65104 44.5703,6.29688 44.2734,6.04688 C43.9766,5.79688 43.5573,5.67188 43.0156,5.67188 C42.6719,5.67188 42.3359,5.71354 42.0078,5.79688 C41.6797,5.88021 41.3646,6.00521 41.0625,6.17188 L41.0625,5.26563 C41.4271,5.11979 41.7813,5.01302 42.125,4.94531 C42.4688,4.8776 42.7969,4.84375 43.1094,4.84375 C43.9844,4.84375 44.6354,5.06771 45.0625,5.51563 C45.4896,5.96354 45.7031,6.64583 45.7031,7.5625 M48.0625,10.0938 L49.8438,10.0938 L49.8438,3.96875 L47.9063,4.35938 L47.9063,3.375 L49.8281,2.98438 L50.9219,2.98438 L50.9219,10.0938 L52.6875,10.0938 L52.6875,11 L48.0625,11 L48.0625,10.0938"/>
</g>

<g fill="none" stroke="#000000" stroke-opacity="1" stroke-width="1" stroke-linecap="square" stroke-linejoin="bevel" transform="matrix(1.99339,0,0,1.99339,135.055,42.8578)"
font-family="sans" font-size="11" font-weight="100" font-style="normal" 
>
</g>

<g fill="none" stroke="#000000" stroke-opacity="1" stroke-width="1" stroke-linecap="square" stroke-linejoin="bevel" transform="matrix(1.99339,0,0,1.99339,135.055,42.8578)"
font-family="Ubuntu" font-size="11" font-weight="400" font-style="normal" 
>
</g>

<g fill="none" stroke="#000000" stroke-opacity="1" stroke-width="1" stroke-linecap="square" stroke-linejoin="bevel" transform="matrix(1.99339,0,0,1.99339,0.00087709,79.3288)"
font-family="Ubuntu" font-size="11" font-weight="400" font-style="normal" 
>
</g>

<g fill="#000000" fill-opacity="1" stroke="#000000" stroke-opacity="1" stroke-width="1" stroke-linecap="square" stroke-linejoin="round" transform="matrix(1.99339,0,0,1.99339,0.00087709,79.3288)"
font-family="Ubuntu" font-size="11" font-weight="400" font-style="normal" 
>
<path vector-effect="none" fill-rule="evenodd" d="M62.125,-5.75 L63.4085,-9.01655 L52.792,-9.4171 L60.8415,-2.48345 L62.125,-5.75"/>
</g>

<g fill="none" stroke="#000000" stroke-opacity="1" stroke-width="1" stroke-linecap="square" stroke-linejoin="bevel" transform="matrix(1.99339,0,0,1.99339,0.00087709,79.3288)"
font-family="Ubuntu" font-size="11" font-weight="400" font-style="normal" 
>
</g>

<g fill="none" stroke="#000000" stroke-opacity="1" stroke-width="1" stroke-linecap="square" stroke-linejoin="bevel" transform="matrix(1.99339,0,0,1.99339,0.00087709,79.3288)"
font-family="Ubuntu" font-size="11" font-weight="400" font-style="normal" 
>
</g>

<g fill="none" stroke="#000000" stroke-opacity="1" stroke-width="1" stroke-linecap="square" stroke-linejoin="bevel" transform="matrix(1.99339,0,0,1.99339,0.00087709,79.3288)"
font-family="Ubuntu" font-size="11" font-weight="400" font-style="normal" 
>
</g>

<g fill="none" stroke="#000000" stroke-opacity="1" stroke-width="1" stroke-linecap="square" stroke-linejoin="bevel" transform="matrix(1.99339,0,0,1.99339,0.00087709,79.3288)"
font-family="Ubuntu" font-size="11" font-weight="400" font-style="normal" 
>
</g>

<g fill="none" stroke="#000000" stroke-opacity="1" stroke-width="1" stroke-linecap="square" stroke-linejoin="round" transform="matrix(1.99339,0,0,1.99339,0.00087709,79.3288)"
font-family="Ubuntu" font-size="11" font-weight="400" font-style="normal" 
>
<path vector-effect="none" fill-rule="evenodd" d="M61.406,-21.796 C78.356,-21.796 99.55,-21.796 117.64,-21.796 "/>
</g>

<g fill="none" stroke="#000000" stroke-opacity="1" stroke-width="1" stroke-linecap="square" stroke-linejoin="bevel" transform="matrix(1.99339,0,0,1.99339,0.00087709,79.3288)"
font-family="Ubuntu" font-size="11" font-weight="400" font-style="normal" 
>
</g>

<g fill="none" stroke="#000000" stroke-opacity="1" stroke-width="1" stroke-linecap="square" stroke-linejoin="bevel" transform="matrix(1.99339,0,0,1.99339,135.055,6.97685)"
font-family="Ubuntu" font-size="11" font-weight="400" font-style="normal" 
>
</g>

<g fill="none" stroke="#000000" stroke-opacity="1" stroke-width="1" stroke-linecap="square" stroke-linejoin="bevel" transform="matrix(1.99339,0,0,1.99339,135.055,6.97685)"
font-family="sans" font-size="11" font-weight="100" font-style="normal" 
>
</g>

<g fill="#000000" fill-opacity="1" stroke="#000000" stroke-opacity="1" stroke-width="1" stroke-linecap="square" stroke-linejoin="round" transform="matrix(1.99339,0,0,1.99339,135.055,6.97685)"
font-family="sans" font-size="11" font-weight="100" font-style="normal" 
>
<path vector-effect="none" fill-rule="nonzero" d="M2.79688,2.98438 L3.70313,2.98438 L0.90625,12.0156 L0,12.0156 L2.79688,2.98438 M8.21875,5.90625 C8.11458,5.84375 7.9974,5.79688 7.86719,5.76563 C7.73698,5.73438 7.59375,5.71875 7.4375,5.71875 C6.875,5.71875 6.44531,5.90104 6.14844,6.26563 C5.85156,6.63021 5.70313,7.15104 5.70313,7.82813 L5.70313,11 L4.70313,11 L4.70313,4.98438 L5.70313,4.98438 L5.70313,5.92188 C5.90104,5.55729 6.16667,5.28646 6.5,5.10938 C6.83333,4.93229 7.23958,4.84375 7.71875,4.84375 C7.79167,4.84375 7.86719,4.84635 7.94531,4.85156 C8.02344,4.85677 8.11458,4.86979 8.21875,4.89063 L8.21875,5.90625 M11.9844,7.96875 C11.1927,7.96875 10.6432,8.0625 10.3359,8.25 C10.0286,8.4375 9.875,8.75 9.875,9.1875 C9.875,9.53125 9.98958,9.80729 10.2188,10.0156 C10.4479,10.224 10.7604,10.3281 11.1563,10.3281 C11.7083,10.3281 12.1484,10.1328 12.4766,9.74219 C12.8047,9.35156 12.9688,8.83854 12.9688,8.20313 L12.9688,7.96875 L11.9844,7.96875 M13.9531,7.5625 L13.9531,11 L12.9688,11 L12.9688,10.0938 C12.75,10.4583 12.4714,10.7266 12.1328,10.8984 C11.7943,11.0703 11.3802,11.1563 10.8906,11.1563 C10.276,11.1563 9.78646,10.9844 9.42188,10.6406 C9.05729,10.2969 8.875,9.83333 8.875,9.25 C8.875,8.57292 9.10156,8.0625 9.55469,7.71875 C10.0078,7.375 10.6875,7.20313 11.5938,7.20313 L12.9688,7.20313 L12.9688,7.10938 C12.9688,6.65104 12.8203,6.29688 12.5234,6.04688 C12.2266,5.79688 11.8073,5.67188 11.2656,5.67188 C10.9219,5.67188 10.5859,5.71354 10.2578,5.79688 C9.92969,5.88021 9.61458,6.00521 9.3125,6.17188 L9.3125,5.26563 C9.67708,5.11979 10.0313,5.01302 10.375,4.94531 C10.7188,4.8776 11.0469,4.84375 11.3594,4.84375 C12.2344,4.84375 12.8854,5.06771 13.3125,5.51563 C13.7396,5.96354 13.9531,6.64583 13.9531,7.5625 M16.5781,8 C16.5781,8.72917 16.7292,9.29948 17.0313,9.71094 C17.3333,10.1224 17.7448,10.3281 18.2656,10.3281 C18.7865,10.3281 19.1979,10.1224 19.5,9.71094 C19.8021,9.29948 19.9531,8.72917 19.9531,8 C19.9531,7.27083 19.8021,6.70052 19.5,6.28906 C19.1979,5.8776 18.7865,5.67188 18.2656,5.67188 C17.7448,5.67188 17.3333,5.8776 17.0313,6.28906 C16.7292,6.70052 16.5781,7.27083 16.5781,8 M19.9531,10.0938 C19.7448,10.4583 19.4818,10.7266 19.1641,10.8984 C18.8464,11.0703 18.4635,11.1563 18.0156,11.1563 C17.2969,11.1563 16.7083,10.8672 16.25,10.2891 C15.7917,9.71094 15.5625,8.94792 15.5625,8 C15.5625,7.05208 15.7917,6.28906 16.25,5.71094 C16.7083,5.13281 17.2969,4.84375 18.0156,4.84375 C18.4635,4.84375 18.8464,4.92969 19.1641,5.10156 C19.4818,5.27344 19.7448,5.53646 19.9531,5.89063 L19.9531,4.98438 L20.9375,4.98438 L20.9375,13.2813 L19.9531,13.2813 L19.9531,10.0938 M22.8594,8.625 L22.8594,4.98438 L23.8438,4.98438 L23.8438,8.59375 C23.8438,9.15625 23.9557,9.58073 24.1797,9.86719 C24.4036,10.1536 24.7344,10.2969 25.1719,10.2969 C25.7135,10.2969 26.138,10.1276 26.4453,9.78906 C26.7526,9.45052 26.9063,8.98438 26.9063,8.39063 L26.9063,4.98438 L27.8906,4.98438 L27.8906,11 L26.9063,11 L26.9063,10.0781 C26.6667,10.4427 26.388,10.7135 26.0703,10.8906 C25.7526,11.0677 25.3854,11.1563 24.9688,11.1563 C24.2813,11.1563 23.7578,10.9401 23.3984,10.5078 C23.0391,10.0755 22.8594,9.44792 22.8594,8.625 M35.0781,7.75 L35.0781,8.23438 L30.5313,8.23438 C30.5729,8.91146 30.776,9.42708 31.1406,9.78125 C31.5052,10.1354 32.0156,10.3125 32.6719,10.3125 C33.0573,10.3125 33.4271,10.2656 33.7813,10.1719 C34.1354,10.0781 34.4896,9.94271 34.8438,9.76563 L34.8438,10.6875 C34.4896,10.8438 34.125,10.9609 33.75,11.0391 C33.375,11.1172 33,11.1563 32.625,11.1563 C31.6563,11.1563 30.8932,10.8776 30.3359,10.3203 C29.7786,9.76302 29.5,9.00521 29.5,8.04688 C29.5,7.06771 29.7656,6.28906 30.2969,5.71094 C30.8281,5.13281 31.5469,4.84375 32.4531,4.84375 C33.2552,4.84375 33.8932,5.10417 34.3672,5.625 C34.8411,6.14583 35.0781,6.85417 35.0781,7.75 M34.0781,7.45313 C34.0781,6.91146 33.9297,6.47917 33.6328,6.15625 C33.3359,5.83333 32.9427,5.67188 32.4531,5.67188 C31.901,5.67188 31.4609,5.82813 31.1328,6.14063 C30.8047,6.45313 30.6146,6.89063 30.5625,7.45313 L34.0781,7.45313 M37.6719,3.28125 L37.6719,4.98438 L39.7031,4.98438 L39.7031,5.75 L37.6719,5.75 L37.6719,9.01563 C37.6719,9.50521 37.7396,9.82031 37.875,9.96094 C38.0104,10.1016 38.2813,10.1719 38.6875,10.1719 L39.7031,10.1719 L39.7031,11 L38.6875,11 C37.9271,11 37.401,10.8568 37.1094,10.5703 C36.8177,10.2839 36.6719,9.76563 36.6719,9.01563 L36.6719,5.75 L35.9531,5.75 L35.9531,4.98438 L36.6719,4.98438 L36.6719,3.28125 L37.6719,3.28125 M43.7344,7.96875 C42.9427,7.96875 42.3932,8.0625 42.0859,8.25 C41.7786,8.4375 41.625,8.75 41.625,9.1875 C41.625,9.53125 41.7396,9.80729 41.9688,10.0156 C42.1979,10.224 42.5104,10.3281 42.9063,10.3281 C43.4583,10.3281 43.8984,10.1328 44.2266,9.74219 C44.5547,9.35156 44.7188,8.83854 44.7188,8.20313 L44.7188,7.96875 L43.7344,7.96875 M45.7031,7.5625 L45.7031,11 L44.7188,11 L44.7188,10.0938 C44.5,10.4583 44.2214,10.7266 43.8828,10.8984 C43.5443,11.0703 43.1302,11.1563 42.6406,11.1563 C42.026,11.1563 41.5365,10.9844 41.1719,10.6406 C40.8073,10.2969 40.625,9.83333 40.625,9.25 C40.625,8.57292 40.8516,8.0625 41.3047,7.71875 C41.7578,7.375 42.4375,7.20313 43.3438,7.20313 L44.7188,7.20313 L44.7188,7.10938 C44.7188,6.65104 44.5703,6.29688 44.2734,6.04688 C43.9766,5.79688 43.5573,5.67188 43.0156,5.67188 C42.6719,5.67188 42.3359,5.71354 42.0078,5.79688 C41.6797,5.88021 41.3646,6.00521 41.0625,6.17188 L41.0625,5.26563 C41.4271,5.11979 41.7813,5.01302 42.125,4.94531 C42.4688,4.8776 42.7969,4.84375 43.1094,4.84375 C43.9844,4.84375 44.6354,5.06771 45.0625,5.51563 C45.4896,5.96354 45.7031,6.64583 45.7031,7.5625 M48.8125,10.0938 L52.5938,10.0938 L52.5938,11 L47.5156,11 L47.5156,10.0938 C47.9219,9.66667 48.4818,9.09375 49.1953,8.375 C49.9089,7.65625 50.3542,7.19271 50.5313,6.98438 C50.875,6.58854 51.1172,6.25521 51.2578,5.98438 C51.3984,5.71354 51.4688,5.44792 51.4688,5.1875 C51.4688,4.76042 51.3203,4.41406 51.0234,4.14844 C50.7266,3.88281 50.3333,3.75 49.8438,3.75 C49.5104,3.75 49.1536,3.8099 48.7734,3.92969 C48.3932,4.04948 47.9896,4.22917 47.5625,4.46875 L47.5625,3.375 C48,3.19792 48.4089,3.0625 48.7891,2.96875 C49.1693,2.875 49.5156,2.82813 49.8281,2.82813 C50.6615,2.82813 51.3255,3.03646 51.8203,3.45313 C52.3151,3.86979 52.5625,4.42708 52.5625,5.125 C52.5625,5.45833 52.5,5.77083 52.375,6.0625 C52.25,6.35417 52.026,6.70313 51.7031,7.10938 C51.6094,7.21354 51.3229,7.51302 50.8438,8.00781 C50.3646,8.5026 49.6875,9.19792 48.8125,10.0938 "/>
</g>

<g fill="none" stroke="#000000" stroke-opacity="1" stroke-width="1" stroke-linecap="square" stroke-linejoin="bevel" transform="matrix(1.99339,0,0,1.99339,135.055,6.97685)"
font-family="sans" font-size="11" font-weight="100" font-style="normal" 
>
</g>

<g fill="none" stroke="#000000" stroke-opacity="1" stroke-width="1" stroke-linecap="square" stroke-linejoin="bevel" transform="matrix(1.99339,0,0,1.99339,135.055,6.97685)"
font-family="Ubuntu" font-size="11" font-weight="400" font-style="normal" 
>
</g>

<g fill="none" stroke="#000000" stroke-opacity="1" stroke-width="1" stroke-linecap="square" stroke-linejoin="bevel" transform="matrix(1.99339,0,0,1.99339,0.00087709,79.3288)"
font-family="Ubuntu" font-size="11" font-weight="400" font-style="normal" 
>
</g>

<g fill="#000000" fill-opacity="1" stroke="#000000" stroke-opacity="1" stroke-width="1" stroke-linecap="square" stroke-linejoin="round" transform="matrix(1.99339,0,0,1.99339,0.00087709,79.3288)"
font-family="Ubuntu" font-size="11" font-weight="400" font-style="normal" 
>
<path vector-effect="none" fill-rule="evenodd" d="M117.64,-21.796 L117.64,-18.212 L127.88,-21.796 L117.64,-25.38 L117.64,-21.796"/>
</g>

<g fill="none" stroke="#000000" stroke-opacity="1" stroke-width="1" stroke-linecap="square" stroke-linejoin="bevel" transform="matrix(1.99339,0,0,1.99339,0.00087709,79.3288)"
font-family="Ubuntu" font-size="11" font-weight="400" font-style="normal" 
>
</g>

<g fill="none" stroke="#000000" stroke-opacity="1" stroke-width="1" stroke-linecap="square" stroke-linejoin="bevel" transform="matrix(1,0,0,1,0,0)"
font-family="Ubuntu" font-size="11" font-weight="400" font-style="normal" 
>
</g>
</g>
</svg>
