<?xml version="1.0" encoding="UTF-8" standalone="no"?>
<svg width="288.925mm" height="63.5mm"
 xmlns="http://www.w3.org/2000/svg" xmlns:xlink="http://www.w3.org/1999/xlink"  version="1.2" baseProfile="tiny">
<title>Qt SVG Document</title>
<desc>Generated with Qt</desc>
<defs>
</defs>
<g fill="none" stroke="black" stroke-width="1" fill-rule="evenodd" stroke-linecap="square" stroke-linejoin="bevel" >

<g fill="none" stroke="#000000" stroke-opacity="1" stroke-width="1" stroke-linecap="square" stroke-linejoin="bevel" transform="matrix(1,0,0,1,0,0)"
font-family="Ubuntu" font-size="11" font-weight="400" font-style="normal" 
>
</g>

<g fill="none" stroke="#000000" stroke-opacity="1" stroke-width="1" stroke-linecap="square" stroke-linejoin="bevel" transform="matrix(1,0,0,1,0,0)"
font-family="Ubuntu" font-size="11" font-weight="400" font-style="normal" 
>
</g>

<g fill="none" stroke="#000000" stroke-opacity="1" stroke-width="1" stroke-linecap="square" stroke-linejoin="bevel" transform="matrix(1.99965,0,0,1.99965,0.00279951,179.968)"
font-family="Ubuntu" font-size="11" font-weight="400" font-style="normal" 
>
</g>

<g fill="#ffffff" fill-opacity="1" stroke="none" transform="matrix(1.99965,0,0,1.99965,0.00279951,179.968)"
font-family="Ubuntu" font-size="11" font-weight="400" font-style="normal" 
>
<rect x="-0.0014" y="-90" width="409.572" height="90"/>
</g>

<g fill="none" stroke="#000000" stroke-opacity="1" stroke-width="1" stroke-linecap="square" stroke-linejoin="bevel" transform="matrix(1.99965,0,0,1.99965,0.00279951,179.968)"
font-family="Ubuntu" font-size="11" font-weight="400" font-style="normal" 
>
</g>

<g fill="none" stroke="#000000" stroke-opacity="1" stroke-width="1" stroke-linecap="square" stroke-linejoin="bevel" transform="matrix(1.99965,0,0,1.99965,0.00279951,179.968)"
font-family="Ubuntu" font-size="11" font-weight="400" font-style="normal" 
>
</g>

<g fill="none" stroke="#000000" stroke-opacity="1" stroke-width="1" stroke-linecap="square" stroke-linejoin="bevel" transform="matrix(1.99965,0,0,1.99965,0.00279951,179.968)"
font-family="Ubuntu" font-size="11" font-weight="400" font-style="normal" 
>
</g>

<g fill="none" stroke="#000000" stroke-opacity="1" stroke-width="1" stroke-linecap="square" stroke-linejoin="bevel" transform="matrix(1.99965,0,0,1.99965,0.00279951,179.968)"
font-family="Ubuntu" font-size="11" font-weight="400" font-style="normal" 
>
</g>

<g fill="none" stroke="#000000" stroke-opacity="1" stroke-width="1" stroke-linecap="square" stroke-linejoin="round" transform="matrix(1.99965,0,0,1.99965,0.00279951,179.968)"
font-family="Ubuntu" font-size="11" font-weight="400" font-style="normal" 
>
<ellipse cx="284.78" cy="-18" rx="124.29" ry="17.5"/>
</g>

<g fill="none" stroke="#000000" stroke-opacity="1" stroke-width="1" stroke-linecap="square" stroke-linejoin="bevel" transform="matrix(1.99965,0,0,1.99965,0.00279951,179.968)"
font-family="Ubuntu" font-size="11" font-weight="400" font-style="normal" 
>
</g>

<g fill="none" stroke="#000000" stroke-opacity="1" stroke-width="1" stroke-linecap="square" stroke-linejoin="bevel" transform="matrix(1.99965,0,0,1.99965,392.01,129.977)"
font-family="Ubuntu" font-size="11" font-weight="400" font-style="normal" 
>
</g>

<g fill="none" stroke="#000000" stroke-opacity="1" stroke-width="1" stroke-linecap="square" stroke-linejoin="bevel" transform="matrix(1.99965,0,0,1.99965,392.01,129.977)"
font-family="sans" font-size="11" font-weight="100" font-style="normal" 
>
</g>

<g fill="#000000" fill-opacity="1" stroke="#000000" stroke-opacity="1" stroke-width="1" stroke-linecap="square" stroke-linejoin="round" transform="matrix(1.99965,0,0,1.99965,392.01,129.977)"
font-family="sans" font-size="11" font-weight="100" font-style="normal" 
>
<path vector-effect="none" fill-rule="nonzero" d="M2.79688,2.98438 L3.70313,2.98438 L0.90625,12.0156 L0,12.0156 L2.79688,2.98438 M8.21875,5.90625 C8.11458,5.84375 7.9974,5.79688 7.86719,5.76563 C7.73698,5.73438 7.59375,5.71875 7.4375,5.71875 C6.875,5.71875 6.44531,5.90104 6.14844,6.26563 C5.85156,6.63021 5.70313,7.15104 5.70313,7.82813 L5.70313,11 L4.70313,11 L4.70313,4.98438 L5.70313,4.98438 L5.70313,5.92188 C5.90104,5.55729 6.16667,5.28646 6.5,5.10938 C6.83333,4.93229 7.23958,4.84375 7.71875,4.84375 C7.79167,4.84375 7.86719,4.84635 7.94531,4.85156 C8.02344,4.85677 8.11458,4.86979 8.21875,4.89063 L8.21875,5.90625 M11.5938,5.67188 C11.0625,5.67188 10.6432,5.88021 10.3359,6.29688 C10.0286,6.71354 9.875,7.28125 9.875,8 C9.875,8.71875 10.026,9.28385 10.3281,9.69531 C10.6302,10.1068 11.0521,10.3125 11.5938,10.3125 C12.1146,10.3125 12.5286,10.1068 12.8359,9.69531 C13.1432,9.28385 13.2969,8.71875 13.2969,8 C13.2969,7.28125 13.1432,6.71354 12.8359,6.29688 C12.5286,5.88021 12.1146,5.67188 11.5938,5.67188 M11.5938,4.84375 C12.4479,4.84375 13.1198,5.1224 13.6094,5.67969 C14.099,6.23698 14.3438,7.01042 14.3438,8 C14.3438,8.97917 14.099,9.75 13.6094,10.3125 C13.1198,10.875 12.4479,11.1563 11.5938,11.1563 C10.7292,11.1563 10.0521,10.875 9.5625,10.3125 C9.07292,9.75 8.82813,8.97917 8.82813,8 C8.82813,7.01042 9.07292,6.23698 9.5625,5.67969 C10.0521,5.1224 10.7292,4.84375 11.5938,4.84375 M19.8125,5.15625 L19.8125,6.09375 C19.5313,5.94792 19.2396,5.84115 18.9375,5.77344 C18.6354,5.70573 18.3229,5.67188 18,5.67188 C17.5104,5.67188 17.1432,5.7474 16.8984,5.89844 C16.6536,6.04948 16.5313,6.27083 16.5313,6.5625 C16.5313,6.79167 16.6198,6.97135 16.7969,7.10156 C16.974,7.23177 17.3281,7.35938 17.8594,7.48438 L18.1875,7.5625 C18.8958,7.70833 19.3958,7.91927 19.6875,8.19531 C19.9792,8.47135 20.125,8.85417 20.125,9.34375 C20.125,9.89583 19.9063,10.3359 19.4688,10.6641 C19.0313,10.9922 18.4219,11.1563 17.6406,11.1563 C17.3177,11.1563 16.9818,11.125 16.6328,11.0625 C16.2839,11 15.9167,10.9063 15.5313,10.7813 L15.5313,9.76563 C15.8958,9.95313 16.2552,10.0938 16.6094,10.1875 C16.9635,10.2813 17.3177,10.3281 17.6719,10.3281 C18.1302,10.3281 18.4844,10.2474 18.7344,10.0859 C18.9844,9.92448 19.1094,9.70313 19.1094,9.42188 C19.1094,9.15104 19.0208,8.94271 18.8438,8.79688 C18.6667,8.65104 18.2708,8.51563 17.6563,8.39063 L17.3125,8.29688 C16.6979,8.17188 16.2552,7.97656 15.9844,7.71094 C15.7135,7.44531 15.5781,7.07813 15.5781,6.60938 C15.5781,6.04688 15.7786,5.61198 16.1797,5.30469 C16.5807,4.9974 17.151,4.84375 17.8906,4.84375 C18.2552,4.84375 18.599,4.86979 18.9219,4.92188 C19.2448,4.97396 19.5417,5.05208 19.8125,5.15625 M22.6719,3.28125 L22.6719,4.98438 L24.7031,4.98438 L24.7031,5.75 L22.6719,5.75 L22.6719,9.01563 C22.6719,9.50521 22.7396,9.82031 22.875,9.96094 C23.0104,10.1016 23.2813,10.1719 23.6875,10.1719 L24.7031,10.1719 L24.7031,11 L23.6875,11 C22.9271,11 22.401,10.8568 22.1094,10.5703 C21.8177,10.2839 21.6719,9.76563 21.6719,9.01563 L21.6719,5.75 L20.9531,5.75 L20.9531,4.98438 L21.6719,4.98438 L21.6719,3.28125 L22.6719,3.28125 M28.3438,5.67188 C27.8125,5.67188 27.3932,5.88021 27.0859,6.29688 C26.7786,6.71354 26.625,7.28125 26.625,8 C26.625,8.71875 26.776,9.28385 27.0781,9.69531 C27.3802,10.1068 27.8021,10.3125 28.3438,10.3125 C28.8646,10.3125 29.2786,10.1068 29.5859,9.69531 C29.8932,9.28385 30.0469,8.71875 30.0469,8 C30.0469,7.28125 29.8932,6.71354 29.5859,6.29688 C29.2786,5.88021 28.8646,5.67188 28.3438,5.67188 M28.3438,4.84375 C29.1979,4.84375 29.8698,5.1224 30.3594,5.67969 C30.849,6.23698 31.0938,7.01042 31.0938,8 C31.0938,8.97917 30.849,9.75 30.3594,10.3125 C29.8698,10.875 29.1979,11.1563 28.3438,11.1563 C27.4792,11.1563 26.8021,10.875 26.3125,10.3125 C25.8229,9.75 25.5781,8.97917 25.5781,8 C25.5781,7.01042 25.8229,6.23698 26.3125,5.67969 C26.8021,5.1224 27.4792,4.84375 28.3438,4.84375 M33.6875,10.0938 L33.6875,13.2813 L32.6875,13.2813 L32.6875,4.98438 L33.6875,4.98438 L33.6875,5.89063 C33.8854,5.53646 34.1432,5.27344 34.4609,5.10156 C34.7786,4.92969 35.1615,4.84375 35.6094,4.84375 C36.3385,4.84375 36.9297,5.13281 37.3828,5.71094 C37.8359,6.28906 38.0625,7.05208 38.0625,8 C38.0625,8.94792 37.8359,9.71094 37.3828,10.2891 C36.9297,10.8672 36.3385,11.1563 35.6094,11.1563 C35.1615,11.1563 34.7786,11.0703 34.4609,10.8984 C34.1432,10.7266 33.8854,10.4583 33.6875,10.0938 M37.0469,8 C37.0469,7.27083 36.8958,6.70052 36.5938,6.28906 C36.2917,5.8776 35.8802,5.67188 35.3594,5.67188 C34.8385,5.67188 34.4297,5.8776 34.1328,6.28906 C33.8359,6.70052 33.6875,7.27083 33.6875,8 C33.6875,8.72917 33.8359,9.29948 34.1328,9.71094 C34.4297,10.1224 34.8385,10.3281 35.3594,10.3281 C35.8802,10.3281 36.2917,10.1224 36.5938,9.71094 C36.8958,9.29948 37.0469,8.72917 37.0469,8 M39.6875,4.98438 L40.6875,4.98438 L40.6875,11 L39.6875,11 L39.6875,4.98438 M39.6875,2.64063 L40.6875,2.64063 L40.6875,3.89063 L39.6875,3.89063 L39.6875,2.64063 M47.0625,5.21875 L47.0625,6.14063 C46.7917,5.98438 46.5156,5.86719 46.2344,5.78906 C45.9531,5.71094 45.6667,5.67188 45.375,5.67188 C44.7396,5.67188 44.2448,5.875 43.8906,6.28125 C43.5365,6.6875 43.3594,7.26042 43.3594,8 C43.3594,8.72917 43.5365,9.29688 43.8906,9.70313 C44.2448,10.1094 44.7396,10.3125 45.375,10.3125 C45.6667,10.3125 45.9531,10.276 46.2344,10.2031 C46.5156,10.1302 46.7917,10.0156 47.0625,9.85938 L47.0625,10.7656 C46.7917,10.901 46.5078,11 46.2109,11.0625 C45.9141,11.125 45.599,11.1563 45.2656,11.1563 C44.3594,11.1563 43.6406,10.8724 43.1094,10.3047 C42.5781,9.73698 42.3125,8.96875 42.3125,8 C42.3125,7.02083 42.5807,6.25 43.1172,5.6875 C43.6536,5.125 44.3906,4.84375 45.3281,4.84375 C45.6406,4.84375 45.9401,4.875 46.2266,4.9375 C46.513,5 46.7917,5.09375 47.0625,5.21875 M53.3594,12.8281 L53.3594,13.5938 L47.6406,13.5938 L47.6406,12.8281 L53.3594,12.8281 M56.875,6.5625 C56.3958,6.5625 56.013,6.72917 55.7266,7.0625 C55.4401,7.39583 55.2969,7.84896 55.2969,8.42188 C55.2969,9.00521 55.4401,9.46354 55.7266,9.79688 C56.013,10.1302 56.3958,10.2969 56.875,10.2969 C57.3646,10.2969 57.7526,10.1302 58.0391,9.79688 C58.3255,9.46354 58.4688,9.00521 58.4688,8.42188 C58.4688,7.84896 58.3255,7.39583 58.0391,7.0625 C57.7526,6.72917 57.3646,6.5625 56.875,6.5625 M59.0313,3.15625 L59.0313,4.14063 C58.7604,4.01563 58.487,3.91927 58.2109,3.85156 C57.9349,3.78385 57.6615,3.75 57.3906,3.75 C56.6719,3.75 56.1224,3.99219 55.7422,4.47656 C55.362,4.96094 55.1458,5.69271 55.0938,6.67188 C55.3125,6.35938 55.5807,6.11979 55.8984,5.95313 C56.2161,5.78646 56.5677,5.70313 56.9531,5.70313 C57.7552,5.70313 58.3906,5.94792 58.8594,6.4375 C59.3281,6.92708 59.5625,7.58854 59.5625,8.42188 C59.5625,9.24479 59.3177,9.90625 58.8281,10.4063 C58.3385,10.9063 57.6875,11.1563 56.875,11.1563 C55.9479,11.1563 55.2396,10.7995 54.75,10.0859 C54.2604,9.3724 54.0156,8.34375 54.0156,7 C54.0156,5.72917 54.3177,4.71615 54.9219,3.96094 C55.526,3.20573 56.3333,2.82813 57.3438,2.82813 C57.6146,2.82813 57.888,2.85677 58.1641,2.91406 C58.4401,2.97135 58.7292,3.05208 59.0313,3.15625 M63.7344,3.6875 C63.1719,3.6875 62.75,3.96354 62.4688,4.51563 C62.1875,5.06771 62.0469,5.89583 62.0469,7 C62.0469,8.09375 62.1875,8.91667 62.4688,9.46875 C62.75,10.0208 63.1719,10.2969 63.7344,10.2969 C64.2969,10.2969 64.7188,10.0208 65,9.46875 C65.2813,8.91667 65.4219,8.09375 65.4219,7 C65.4219,5.89583 65.2813,5.06771 65,4.51563 C64.7188,3.96354 64.2969,3.6875 63.7344,3.6875 M63.7344,2.82813 C64.6302,2.82813 65.3151,3.1849 65.7891,3.89844 C66.263,4.61198 66.5,5.64583 66.5,7 C66.5,8.34375 66.263,9.3724 65.7891,10.0859 C65.3151,10.7995 64.6302,11.1563 63.7344,11.1563 C62.8385,11.1563 62.151,10.7995 61.6719,10.0859 C61.1927,9.3724 60.9531,8.34375 60.9531,7 C60.9531,5.64583 61.1927,4.61198 61.6719,3.89844 C62.151,3.1849 62.8385,2.82813 63.7344,2.82813 M68.5781,10.0938 L70.3594,10.0938 L70.3594,3.96875 L68.4219,4.35938 L68.4219,3.375 L70.3438,2.98438 L71.4375,2.98438 L71.4375,10.0938 L73.2031,10.0938 L73.2031,11 L68.5781,11 L68.5781,10.0938 M75.4063,10.8281 L75.4063,9.84375 C75.6771,9.96875 75.9531,10.0677 76.2344,10.1406 C76.5156,10.2135 76.7917,10.25 77.0625,10.25 C77.7813,10.25 78.3281,10.0078 78.7031,9.52344 C79.0781,9.03906 79.2917,8.30729 79.3438,7.32813 C79.1354,7.63021 78.8724,7.86458 78.5547,8.03125 C78.237,8.19792 77.8854,8.28125 77.5,8.28125 C76.6979,8.28125 76.0625,8.03906 75.5938,7.55469 C75.125,7.07031 74.8906,6.40625 74.8906,5.5625 C74.8906,4.73958 75.1354,4.07813 75.625,3.57813 C76.1146,3.07813 76.7656,2.82813 77.5781,2.82813 C78.5052,2.82813 79.2109,3.1849 79.6953,3.89844 C80.1797,4.61198 80.4219,5.64583 80.4219,7 C80.4219,8.26042 80.1224,9.26823 79.5234,10.0234 C78.9245,10.7786 78.1198,11.1563 77.1094,11.1563 C76.8385,11.1563 76.5625,11.1302 76.2813,11.0781 C76,11.026 75.7083,10.9427 75.4063,10.8281 M77.5781,7.4375 C78.0573,7.4375 78.4401,7.27083 78.7266,6.9375 C79.013,6.60417 79.1563,6.14583 79.1563,5.5625 C79.1563,4.98958 79.013,4.53385 78.7266,4.19531 C78.4401,3.85677 78.0573,3.6875 77.5781,3.6875 C77.0885,3.6875 76.7005,3.85677 76.4141,4.19531 C76.1276,4.53385 75.9844,4.98958 75.9844,5.5625 C75.9844,6.14583 76.1276,6.60417 76.4141,6.9375 C76.7005,7.27083 77.0885,7.4375 77.5781,7.4375 M86.7969,12.8281 L86.7969,13.5938 L81.0781,13.5938 L81.0781,12.8281 L86.7969,12.8281 M88.0469,10.0938 L89.8281,10.0938 L89.8281,3.96875 L87.8906,4.35938 L87.8906,3.375 L89.8125,2.98438 L90.9063,2.98438 L90.9063,10.0938 L92.6719,10.0938 L92.6719,11 L88.0469,11 L88.0469,10.0938 M97.2969,6.5625 C96.8177,6.5625 96.4349,6.72917 96.1484,7.0625 C95.862,7.39583 95.7188,7.84896 95.7188,8.42188 C95.7188,9.00521 95.862,9.46354 96.1484,9.79688 C96.4349,10.1302 96.8177,10.2969 97.2969,10.2969 C97.7865,10.2969 98.1745,10.1302 98.4609,9.79688 C98.7474,9.46354 98.8906,9.00521 98.8906,8.42188 C98.8906,7.84896 98.7474,7.39583 98.4609,7.0625 C98.1745,6.72917 97.7865,6.5625 97.2969,6.5625 M99.4531,3.15625 L99.4531,4.14063 C99.1823,4.01563 98.9089,3.91927 98.6328,3.85156 C98.3568,3.78385 98.0833,3.75 97.8125,3.75 C97.0938,3.75 96.5443,3.99219 96.1641,4.47656 C95.7839,4.96094 95.5677,5.69271 95.5156,6.67188 C95.7344,6.35938 96.0026,6.11979 96.3203,5.95313 C96.638,5.78646 96.9896,5.70313 97.375,5.70313 C98.1771,5.70313 98.8125,5.94792 99.2813,6.4375 C99.75,6.92708 99.9844,7.58854 99.9844,8.42188 C99.9844,9.24479 99.7396,9.90625 99.25,10.4063 C98.7604,10.9063 98.1094,11.1563 97.2969,11.1563 C96.3698,11.1563 95.6615,10.7995 95.1719,10.0859 C94.6823,9.3724 94.4375,8.34375 94.4375,7 C94.4375,5.72917 94.7396,4.71615 95.3438,3.96094 C95.9479,3.20573 96.7552,2.82813 97.7656,2.82813 C98.0365,2.82813 98.3099,2.85677 98.5859,2.91406 C98.862,2.97135 99.151,3.05208 99.4531,3.15625 M102.016,10.0938 L103.797,10.0938 L103.797,3.96875 L101.859,4.35938 L101.859,3.375 L103.781,2.98438 L104.875,2.98438 L104.875,10.0938 L106.641,10.0938 L106.641,11 L102.016,11 L102.016,10.0938 M111.141,3.6875 C110.578,3.6875 110.156,3.96354 109.875,4.51563 C109.594,5.06771 109.453,5.89583 109.453,7 C109.453,8.09375 109.594,8.91667 109.875,9.46875 C110.156,10.0208 110.578,10.2969 111.141,10.2969 C111.703,10.2969 112.125,10.0208 112.406,9.46875 C112.688,8.91667 112.828,8.09375 112.828,7 C112.828,5.89583 112.688,5.06771 112.406,4.51563 C112.125,3.96354 111.703,3.6875 111.141,3.6875 M111.141,2.82813 C112.036,2.82813 112.721,3.1849 113.195,3.89844 C113.669,4.61198 113.906,5.64583 113.906,7 C113.906,8.34375 113.669,9.3724 113.195,10.0859 C112.721,10.7995 112.036,11.1563 111.141,11.1563 C110.245,11.1563 109.557,10.7995 109.078,10.0859 C108.599,9.3724 108.359,8.34375 108.359,7 C108.359,5.64583 108.599,4.61198 109.078,3.89844 C109.557,3.1849 110.245,2.82813 111.141,2.82813 M119.094,6.67188 C119.615,6.78646 120.021,7.01823 120.313,7.36719 C120.604,7.71615 120.75,8.15104 120.75,8.67188 C120.75,9.46354 120.477,10.0755 119.93,10.5078 C119.383,10.9401 118.609,11.1563 117.609,11.1563 C117.266,11.1563 116.917,11.1224 116.563,11.0547 C116.208,10.987 115.844,10.8906 115.469,10.7656 L115.469,9.70313 C115.771,9.88021 116.099,10.0156 116.453,10.1094 C116.807,10.2031 117.182,10.25 117.578,10.25 C118.255,10.25 118.771,10.1146 119.125,9.84375 C119.479,9.57292 119.656,9.18229 119.656,8.67188 C119.656,8.19271 119.492,7.82031 119.164,7.55469 C118.836,7.28906 118.375,7.15625 117.781,7.15625 L116.844,7.15625 L116.844,6.26563 L117.828,6.26563 C118.359,6.26563 118.766,6.15885 119.047,5.94531 C119.328,5.73177 119.469,5.42708 119.469,5.03125 C119.469,4.61458 119.323,4.29688 119.031,4.07813 C118.74,3.85938 118.323,3.75 117.781,3.75 C117.49,3.75 117.172,3.78125 116.828,3.84375 C116.484,3.90625 116.109,4.00521 115.703,4.14063 L115.703,3.17188 C116.12,3.05729 116.508,2.97135 116.867,2.91406 C117.227,2.85677 117.563,2.82813 117.875,2.82813 C118.698,2.82813 119.352,3.01563 119.836,3.39063 C120.32,3.76563 120.563,4.27604 120.563,4.92188 C120.563,5.35938 120.435,5.73177 120.18,6.03906 C119.924,6.34635 119.563,6.55729 119.094,6.67188 M122.516,2.98438 L127.672,2.98438 L127.672,3.4375 L124.75,11 L123.625,11 L126.359,3.89063 L122.516,3.89063 L122.516,2.98438 M132.219,6.5625 C131.74,6.5625 131.357,6.72917 131.07,7.0625 C130.784,7.39583 130.641,7.84896 130.641,8.42188 C130.641,9.00521 130.784,9.46354 131.07,9.79688 C131.357,10.1302 131.74,10.2969 132.219,10.2969 C132.708,10.2969 133.096,10.1302 133.383,9.79688 C133.669,9.46354 133.813,9.00521 133.813,8.42188 C133.813,7.84896 133.669,7.39583 133.383,7.0625 C133.096,6.72917 132.708,6.5625 132.219,6.5625 M134.375,3.15625 L134.375,4.14063 C134.104,4.01563 133.831,3.91927 133.555,3.85156 C133.279,3.78385 133.005,3.75 132.734,3.75 C132.016,3.75 131.466,3.99219 131.086,4.47656 C130.706,4.96094 130.49,5.69271 130.438,6.67188 C130.656,6.35938 130.924,6.11979 131.242,5.95313 C131.56,5.78646 131.911,5.70313 132.297,5.70313 C133.099,5.70313 133.734,5.94792 134.203,6.4375 C134.672,6.92708 134.906,7.58854 134.906,8.42188 C134.906,9.24479 134.661,9.90625 134.172,10.4063 C133.682,10.9063 133.031,11.1563 132.219,11.1563 C131.292,11.1563 130.583,10.7995 130.094,10.0859 C129.604,9.3724 129.359,8.34375 129.359,7 C129.359,5.72917 129.661,4.71615 130.266,3.96094 C130.87,3.20573 131.677,2.82813 132.688,2.82813 C132.958,2.82813 133.232,2.85677 133.508,2.91406 C133.784,2.97135 134.073,3.05208 134.375,3.15625 M139.078,3.6875 C138.516,3.6875 138.094,3.96354 137.813,4.51563 C137.531,5.06771 137.391,5.89583 137.391,7 C137.391,8.09375 137.531,8.91667 137.813,9.46875 C138.094,10.0208 138.516,10.2969 139.078,10.2969 C139.641,10.2969 140.063,10.0208 140.344,9.46875 C140.625,8.91667 140.766,8.09375 140.766,7 C140.766,5.89583 140.625,5.06771 140.344,4.51563 C140.063,3.96354 139.641,3.6875 139.078,3.6875 M139.078,2.82813 C139.974,2.82813 140.659,3.1849 141.133,3.89844 C141.607,4.61198 141.844,5.64583 141.844,7 C141.844,8.34375 141.607,9.3724 141.133,10.0859 C140.659,10.7995 139.974,11.1563 139.078,11.1563 C138.182,11.1563 137.495,10.7995 137.016,10.0859 C136.536,9.3724 136.297,8.34375 136.297,7 C136.297,5.64583 136.536,4.61198 137.016,3.89844 C137.495,3.1849 138.182,2.82813 139.078,2.82813 M143.766,10.8281 L143.766,9.84375 C144.036,9.96875 144.313,10.0677 144.594,10.1406 C144.875,10.2135 145.151,10.25 145.422,10.25 C146.141,10.25 146.688,10.0078 147.063,9.52344 C147.438,9.03906 147.651,8.30729 147.703,7.32813 C147.495,7.63021 147.232,7.86458 146.914,8.03125 C146.596,8.19792 146.245,8.28125 145.859,8.28125 C145.057,8.28125 144.422,8.03906 143.953,7.55469 C143.484,7.07031 143.25,6.40625 143.25,5.5625 C143.25,4.73958 143.495,4.07813 143.984,3.57813 C144.474,3.07813 145.125,2.82813 145.938,2.82813 C146.865,2.82813 147.57,3.1849 148.055,3.89844 C148.539,4.61198 148.781,5.64583 148.781,7 C148.781,8.26042 148.482,9.26823 147.883,10.0234 C147.284,10.7786 146.479,11.1563 145.469,11.1563 C145.198,11.1563 144.922,11.1302 144.641,11.0781 C144.359,11.026 144.068,10.9427 143.766,10.8281 M145.938,7.4375 C146.417,7.4375 146.799,7.27083 147.086,6.9375 C147.372,6.60417 147.516,6.14583 147.516,5.5625 C147.516,4.98958 147.372,4.53385 147.086,4.19531 C146.799,3.85677 146.417,3.6875 145.938,3.6875 C145.448,3.6875 145.06,3.85677 144.773,4.19531 C144.487,4.53385 144.344,4.98958 144.344,5.5625 C144.344,6.14583 144.487,6.60417 144.773,6.9375 C145.06,7.27083 145.448,7.4375 145.938,7.4375 M151.656,10.0938 L155.438,10.0938 L155.438,11 L150.359,11 L150.359,10.0938 C150.766,9.66667 151.326,9.09375 152.039,8.375 C152.753,7.65625 153.198,7.19271 153.375,6.98438 C153.719,6.58854 153.961,6.25521 154.102,5.98438 C154.242,5.71354 154.313,5.44792 154.313,5.1875 C154.313,4.76042 154.164,4.41406 153.867,4.14844 C153.57,3.88281 153.177,3.75 152.688,3.75 C152.354,3.75 151.997,3.8099 151.617,3.92969 C151.237,4.04948 150.833,4.22917 150.406,4.46875 L150.406,3.375 C150.844,3.19792 151.253,3.0625 151.633,2.96875 C152.013,2.875 152.359,2.82813 152.672,2.82813 C153.505,2.82813 154.169,3.03646 154.664,3.45313 C155.159,3.86979 155.406,4.42708 155.406,5.125 C155.406,5.45833 155.344,5.77083 155.219,6.0625 C155.094,6.35417 154.87,6.70313 154.547,7.10938 C154.453,7.21354 154.167,7.51302 153.688,8.00781 C153.208,8.5026 152.531,9.19792 151.656,10.0938 M160.031,7.1875 C159.51,7.1875 159.104,7.32552 158.813,7.60156 C158.521,7.8776 158.375,8.26042 158.375,8.75 C158.375,9.22917 158.521,9.60677 158.813,9.88281 C159.104,10.1589 159.51,10.2969 160.031,10.2969 C160.542,10.2969 160.945,10.1589 161.242,9.88281 C161.539,9.60677 161.688,9.22917 161.688,8.75 C161.688,8.26042 161.542,7.8776 161.25,7.60156 C160.958,7.32552 160.552,7.1875 160.031,7.1875 M158.938,6.73438 C158.479,6.61979 158.12,6.40365 157.859,6.08594 C157.599,5.76823 157.469,5.38021 157.469,4.92188 C157.469,4.27604 157.695,3.76563 158.148,3.39063 C158.602,3.01563 159.229,2.82813 160.031,2.82813 C160.823,2.82813 161.448,3.01563 161.906,3.39063 C162.365,3.76563 162.594,4.27604 162.594,4.92188 C162.594,5.38021 162.464,5.76823 162.203,6.08594 C161.943,6.40365 161.583,6.61979 161.125,6.73438 C161.646,6.84896 162.052,7.08333 162.344,7.4375 C162.635,7.79167 162.781,8.22917 162.781,8.75 C162.781,9.52083 162.544,10.1146 162.07,10.5313 C161.596,10.9479 160.917,11.1563 160.031,11.1563 C159.146,11.1563 158.466,10.9479 157.992,10.5313 C157.518,10.1146 157.281,9.52083 157.281,8.75 C157.281,8.22917 157.427,7.79167 157.719,7.4375 C158.01,7.08333 158.417,6.84896 158.938,6.73438 M158.547,5.01563 C158.547,5.43229 158.677,5.75781 158.938,5.99219 C159.198,6.22656 159.563,6.34375 160.031,6.34375 C160.49,6.34375 160.852,6.22656 161.117,5.99219 C161.383,5.75781 161.516,5.43229 161.516,5.01563 C161.516,4.59896 161.383,4.27344 161.117,4.03906 C160.852,3.80469 160.49,3.6875 160.031,3.6875 C159.563,3.6875 159.198,3.80469 158.938,4.03906 C158.677,4.27344 158.547,4.59896 158.547,5.01563 M167.016,3.6875 C166.453,3.6875 166.031,3.96354 165.75,4.51563 C165.469,5.06771 165.328,5.89583 165.328,7 C165.328,8.09375 165.469,8.91667 165.75,9.46875 C166.031,10.0208 166.453,10.2969 167.016,10.2969 C167.578,10.2969 168,10.0208 168.281,9.46875 C168.563,8.91667 168.703,8.09375 168.703,7 C168.703,5.89583 168.563,5.06771 168.281,4.51563 C168,3.96354 167.578,3.6875 167.016,3.6875 M167.016,2.82813 C167.911,2.82813 168.596,3.1849 169.07,3.89844 C169.544,4.61198 169.781,5.64583 169.781,7 C169.781,8.34375 169.544,9.3724 169.07,10.0859 C168.596,10.7995 167.911,11.1563 167.016,11.1563 C166.12,11.1563 165.432,10.7995 164.953,10.0859 C164.474,9.3724 164.234,8.34375 164.234,7 C164.234,5.64583 164.474,4.61198 164.953,3.89844 C165.432,3.1849 166.12,2.82813 167.016,2.82813 M171.406,2.98438 L176.563,2.98438 L176.563,3.4375 L173.641,11 L172.516,11 L175.25,3.89063 L171.406,3.89063 L171.406,2.98438"/>
</g>

<g fill="none" stroke="#000000" stroke-opacity="1" stroke-width="1" stroke-linecap="square" stroke-linejoin="bevel" transform="matrix(1.99965,0,0,1.99965,392.01,129.977)"
font-family="sans" font-size="11" font-weight="100" font-style="normal" 
>
</g>

<g fill="none" stroke="#000000" stroke-opacity="1" stroke-width="1" stroke-linecap="square" stroke-linejoin="bevel" transform="matrix(1.99965,0,0,1.99965,392.01,129.977)"
font-family="Ubuntu" font-size="11" font-weight="400" font-style="normal" 
>
</g>

<g fill="none" stroke="#000000" stroke-opacity="1" stroke-width="1" stroke-linecap="square" stroke-linejoin="bevel" transform="matrix(1.99965,0,0,1.99965,0.00279951,179.968)"
font-family="Ubuntu" font-size="11" font-weight="400" font-style="normal" 
>
</g>

<g fill="none" stroke="#000000" stroke-opacity="1" stroke-width="1" stroke-linecap="square" stroke-linejoin="bevel" transform="matrix(1.99965,0,0,1.99965,0.00279951,179.968)"
font-family="Ubuntu" font-size="11" font-weight="400" font-style="normal" 
>
</g>

<g fill="none" stroke="#000000" stroke-opacity="1" stroke-width="1" stroke-linecap="square" stroke-linejoin="bevel" transform="matrix(1.99965,0,0,1.99965,0.00279951,179.968)"
font-family="Ubuntu" font-size="11" font-weight="400" font-style="normal" 
>
</g>

<g fill="none" stroke="#000000" stroke-opacity="1" stroke-width="1" stroke-linecap="square" stroke-linejoin="round" transform="matrix(1.99965,0,0,1.99965,0.00279951,179.968)"
font-family="Ubuntu" font-size="11" font-weight="400" font-style="normal" 
>
<ellipse cx="58.495" cy="-45" rx="57.9964" ry="17.5"/>
</g>

<g fill="none" stroke="#000000" stroke-opacity="1" stroke-width="1" stroke-linecap="square" stroke-linejoin="bevel" transform="matrix(1.99965,0,0,1.99965,0.00279951,179.968)"
font-family="Ubuntu" font-size="11" font-weight="400" font-style="normal" 
>
</g>

<g fill="none" stroke="#000000" stroke-opacity="1" stroke-width="1" stroke-linecap="square" stroke-linejoin="bevel" transform="matrix(1.99965,0,0,1.99965,44.5944,75.9867)"
font-family="Ubuntu" font-size="11" font-weight="400" font-style="normal" 
>
</g>

<g fill="none" stroke="#000000" stroke-opacity="1" stroke-width="1" stroke-linecap="square" stroke-linejoin="bevel" transform="matrix(1.99965,0,0,1.99965,44.5944,75.9867)"
font-family="sans" font-size="11" font-weight="100" font-style="normal" 
>
</g>

<g fill="#000000" fill-opacity="1" stroke="#000000" stroke-opacity="1" stroke-width="1" stroke-linecap="square" stroke-linejoin="round" transform="matrix(1.99965,0,0,1.99965,44.5944,75.9867)"
font-family="sans" font-size="11" font-weight="100" font-style="normal" 
>
<path vector-effect="none" fill-rule="nonzero" d="M2.79688,2.98438 L3.70313,2.98438 L0.90625,12.0156 L0,12.0156 L2.79688,2.98438 M9.42188,6.14063 C9.67188,5.69271 9.96875,5.36458 10.3125,5.15625 C10.6563,4.94792 11.0625,4.84375 11.5313,4.84375 C12.1563,4.84375 12.638,5.0625 12.9766,5.5 C13.3151,5.9375 13.4844,6.5625 13.4844,7.375 L13.4844,11 L12.4844,11 L12.4844,7.40625 C12.4844,6.82292 12.3828,6.39323 12.1797,6.11719 C11.9766,5.84115 11.6667,5.70313 11.25,5.70313 C10.7396,5.70313 10.3359,5.8724 10.0391,6.21094 C9.74219,6.54948 9.59375,7.01042 9.59375,7.59375 L9.59375,11 L8.59375,11 L8.59375,7.40625 C8.59375,6.82292 8.49219,6.39323 8.28906,6.11719 C8.08594,5.84115 7.77083,5.70313 7.34375,5.70313 C6.84375,5.70313 6.44531,5.8724 6.14844,6.21094 C5.85156,6.54948 5.70313,7.01042 5.70313,7.59375 L5.70313,11 L4.70313,11 L4.70313,4.98438 L5.70313,4.98438 L5.70313,5.92188 C5.92188,5.54688 6.1901,5.27344 6.50781,5.10156 C6.82552,4.92969 7.19792,4.84375 7.625,4.84375 C8.0625,4.84375 8.4349,4.95313 8.74219,5.17188 C9.04948,5.39063 9.27604,5.71354 9.42188,6.14063 M15.4375,4.98438 L16.4375,4.98438 L16.4375,11 L15.4375,11 L15.4375,4.98438 M15.4375,2.64063 L16.4375,2.64063 L16.4375,3.89063 L15.4375,3.89063 L15.4375,2.64063 M17.9844,7.54688 L20.8906,7.54688 L20.8906,8.42188 L17.9844,8.42188 L17.9844,7.54688 M23.4219,10.0938 L23.4219,13.2813 L22.4219,13.2813 L22.4219,4.98438 L23.4219,4.98438 L23.4219,5.89063 C23.6198,5.53646 23.8776,5.27344 24.1953,5.10156 C24.513,4.92969 24.8958,4.84375 25.3438,4.84375 C26.0729,4.84375 26.6641,5.13281 27.1172,5.71094 C27.5703,6.28906 27.7969,7.05208 27.7969,8 C27.7969,8.94792 27.5703,9.71094 27.1172,10.2891 C26.6641,10.8672 26.0729,11.1563 25.3438,11.1563 C24.8958,11.1563 24.513,11.0703 24.1953,10.8984 C23.8776,10.7266 23.6198,10.4583 23.4219,10.0938 M26.7813,8 C26.7813,7.27083 26.6302,6.70052 26.3281,6.28906 C26.026,5.8776 25.6146,5.67188 25.0938,5.67188 C24.5729,5.67188 24.1641,5.8776 23.8672,6.28906 C23.5703,6.70052 23.4219,7.27083 23.4219,8 C23.4219,8.72917 23.5703,9.29948 23.8672,9.71094 C24.1641,10.1224 24.5729,10.3281 25.0938,10.3281 C25.6146,10.3281 26.026,10.1224 26.3281,9.71094 C26.6302,9.29948 26.7813,8.72917 26.7813,8 M29.3281,8.625 L29.3281,4.98438 L30.3125,4.98438 L30.3125,8.59375 C30.3125,9.15625 30.4245,9.58073 30.6484,9.86719 C30.8724,10.1536 31.2031,10.2969 31.6406,10.2969 C32.1823,10.2969 32.6068,10.1276 32.9141,9.78906 C33.2214,9.45052 33.375,8.98438 33.375,8.39063 L33.375,4.98438 L34.3594,4.98438 L34.3594,11 L33.375,11 L33.375,10.0781 C33.1354,10.4427 32.8568,10.7135 32.5391,10.8906 C32.2214,11.0677 31.8542,11.1563 31.4375,11.1563 C30.75,11.1563 30.2266,10.9401 29.8672,10.5078 C29.5078,10.0755 29.3281,9.44792 29.3281,8.625 M40.7188,8 C40.7188,7.27083 40.5677,6.70052 40.2656,6.28906 C39.9635,5.8776 39.5521,5.67188 39.0313,5.67188 C38.5104,5.67188 38.1016,5.8776 37.8047,6.28906 C37.5078,6.70052 37.3594,7.27083 37.3594,8 C37.3594,8.72917 37.5078,9.29948 37.8047,9.71094 C38.1016,10.1224 38.5104,10.3281 39.0313,10.3281 C39.5521,10.3281 39.9635,10.1224 40.2656,9.71094 C40.5677,9.29948 40.7188,8.72917 40.7188,8 M37.3594,5.89063 C37.5573,5.53646 37.8151,5.27344 38.1328,5.10156 C38.4505,4.92969 38.8333,4.84375 39.2813,4.84375 C40.0104,4.84375 40.6016,5.13281 41.0547,5.71094 C41.5078,6.28906 41.7344,7.05208 41.7344,8 C41.7344,8.94792 41.5078,9.71094 41.0547,10.2891 C40.6016,10.8672 40.0104,11.1563 39.2813,11.1563 C38.8333,11.1563 38.4505,11.0703 38.1328,10.8984 C37.8151,10.7266 37.5573,10.4583 37.3594,10.0938 L37.3594,11 L36.3594,11 L36.3594,2.64063 L37.3594,2.64063 L37.3594,5.89063 M43.3594,2.64063 L44.3594,2.64063 L44.3594,11 L43.3594,11 L43.3594,2.64063 M46.4063,4.98438 L47.4063,4.98438 L47.4063,11 L46.4063,11 L46.4063,4.98438 M46.4063,2.64063 L47.4063,2.64063 L47.4063,3.89063 L46.4063,3.89063 L46.4063,2.64063 M53.2969,5.15625 L53.2969,6.09375 C53.0156,5.94792 52.724,5.84115 52.4219,5.77344 C52.1198,5.70573 51.8073,5.67188 51.4844,5.67188 C50.9948,5.67188 50.6276,5.7474 50.3828,5.89844 C50.138,6.04948 50.0156,6.27083 50.0156,6.5625 C50.0156,6.79167 50.1042,6.97135 50.2813,7.10156 C50.4583,7.23177 50.8125,7.35938 51.3438,7.48438 L51.6719,7.5625 C52.3802,7.70833 52.8802,7.91927 53.1719,8.19531 C53.4635,8.47135 53.6094,8.85417 53.6094,9.34375 C53.6094,9.89583 53.3906,10.3359 52.9531,10.6641 C52.5156,10.9922 51.9063,11.1563 51.125,11.1563 C50.8021,11.1563 50.4661,11.125 50.1172,11.0625 C49.7682,11 49.401,10.9063 49.0156,10.7813 L49.0156,9.76563 C49.3802,9.95313 49.7396,10.0938 50.0938,10.1875 C50.4479,10.2813 50.8021,10.3281 51.1563,10.3281 C51.6146,10.3281 51.9688,10.2474 52.2188,10.0859 C52.4688,9.92448 52.5938,9.70313 52.5938,9.42188 C52.5938,9.15104 52.5052,8.94271 52.3281,8.79688 C52.151,8.65104 51.7552,8.51563 51.1406,8.39063 L50.7969,8.29688 C50.1823,8.17188 49.7396,7.97656 49.4688,7.71094 C49.1979,7.44531 49.0625,7.07813 49.0625,6.60938 C49.0625,6.04688 49.263,5.61198 49.6641,5.30469 C50.0651,4.9974 50.6354,4.84375 51.375,4.84375 C51.7396,4.84375 52.0833,4.86979 52.4063,4.92188 C52.7292,4.97396 53.026,5.05208 53.2969,5.15625 M60.1719,7.375 L60.1719,11 L59.1875,11 L59.1875,7.40625 C59.1875,6.83333 59.0781,6.40625 58.8594,6.125 C58.6406,5.84375 58.3073,5.70313 57.8594,5.70313 C57.3281,5.70313 56.9089,5.8724 56.6016,6.21094 C56.2943,6.54948 56.1406,7.01042 56.1406,7.59375 L56.1406,11 L55.1406,11 L55.1406,2.64063 L56.1406,2.64063 L56.1406,5.92188 C56.3698,5.55729 56.6458,5.28646 56.9688,5.10938 C57.2917,4.93229 57.6615,4.84375 58.0781,4.84375 C58.7656,4.84375 59.2865,5.05729 59.6406,5.48438 C59.9948,5.91146 60.1719,6.54167 60.1719,7.375 M67.2969,7.75 L67.2969,8.23438 L62.75,8.23438 C62.7917,8.91146 62.9948,9.42708 63.3594,9.78125 C63.724,10.1354 64.2344,10.3125 64.8906,10.3125 C65.276,10.3125 65.6458,10.2656 66,10.1719 C66.3542,10.0781 66.7083,9.94271 67.0625,9.76563 L67.0625,10.6875 C66.7083,10.8438 66.3438,10.9609 65.9688,11.0391 C65.5938,11.1172 65.2188,11.1563 64.8438,11.1563 C63.875,11.1563 63.112,10.8776 62.5547,10.3203 C61.9974,9.76302 61.7188,9.00521 61.7188,8.04688 C61.7188,7.06771 61.9844,6.28906 62.5156,5.71094 C63.0469,5.13281 63.7656,4.84375 64.6719,4.84375 C65.474,4.84375 66.112,5.10417 66.5859,5.625 C67.0599,6.14583 67.2969,6.85417 67.2969,7.75 M66.2969,7.45313 C66.2969,6.91146 66.1484,6.47917 65.8516,6.15625 C65.5547,5.83333 65.1615,5.67188 64.6719,5.67188 C64.1198,5.67188 63.6797,5.82813 63.3516,6.14063 C63.0234,6.45313 62.8333,6.89063 62.7813,7.45313 L66.2969,7.45313 M72.3906,5.90625 C72.2865,5.84375 72.1693,5.79688 72.0391,5.76563 C71.9089,5.73438 71.7656,5.71875 71.6094,5.71875 C71.0469,5.71875 70.6172,5.90104 70.3203,6.26563 C70.0234,6.63021 69.875,7.15104 69.875,7.82813 L69.875,11 L68.875,11 L68.875,4.98438 L69.875,4.98438 L69.875,5.92188 C70.0729,5.55729 70.3385,5.28646 70.6719,5.10938 C71.0052,4.93229 71.4115,4.84375 71.8906,4.84375 C71.9635,4.84375 72.0391,4.84635 72.1172,4.85156 C72.1953,4.85677 72.2865,4.86979 72.3906,4.89063 L72.3906,5.90625"/>
</g>

<g fill="none" stroke="#000000" stroke-opacity="1" stroke-width="1" stroke-linecap="square" stroke-linejoin="bevel" transform="matrix(1.99965,0,0,1.99965,44.5944,75.9867)"
font-family="sans" font-size="11" font-weight="100" font-style="normal" 
>
</g>

<g fill="none" stroke="#000000" stroke-opacity="1" stroke-width="1" stroke-linecap="square" stroke-linejoin="bevel" transform="matrix(1.99965,0,0,1.99965,44.5944,75.9867)"
font-family="Ubuntu" font-size="11" font-weight="400" font-style="normal" 
>
</g>

<g fill="none" stroke="#000000" stroke-opacity="1" stroke-width="1" stroke-linecap="square" stroke-linejoin="bevel" transform="matrix(1.99965,0,0,1.99965,0.00279951,179.968)"
font-family="Ubuntu" font-size="11" font-weight="400" font-style="normal" 
>
</g>

<g fill="none" stroke="#000000" stroke-opacity="1" stroke-width="1" stroke-linecap="square" stroke-linejoin="bevel" transform="matrix(1.99965,0,0,1.99965,0.00279951,179.968)"
font-family="Ubuntu" font-size="11" font-weight="400" font-style="normal" 
>
</g>

<g fill="none" stroke="#000000" stroke-opacity="1" stroke-width="1" stroke-linecap="square" stroke-linejoin="bevel" transform="matrix(1.99965,0,0,1.99965,0.00279951,179.968)"
font-family="Ubuntu" font-size="11" font-weight="400" font-style="normal" 
>
</g>

<g fill="none" stroke="#000000" stroke-opacity="1" stroke-width="1" stroke-linecap="square" stroke-linejoin="round" transform="matrix(1.99965,0,0,1.99965,0.00279951,179.968)"
font-family="Ubuntu" font-size="11" font-weight="400" font-style="normal" 
>
<ellipse cx="284.78" cy="-72" rx="61.2436" ry="17.5"/>
</g>

<g fill="none" stroke="#000000" stroke-opacity="1" stroke-width="1" stroke-linecap="square" stroke-linejoin="bevel" transform="matrix(1.99965,0,0,1.99965,0.00279951,179.968)"
font-family="Ubuntu" font-size="11" font-weight="400" font-style="normal" 
>
</g>

<g fill="none" stroke="#000000" stroke-opacity="1" stroke-width="1" stroke-linecap="square" stroke-linejoin="bevel" transform="matrix(1.99965,0,0,1.99965,490.82,21.9961)"
font-family="Ubuntu" font-size="11" font-weight="400" font-style="normal" 
>
</g>

<g fill="none" stroke="#000000" stroke-opacity="1" stroke-width="1" stroke-linecap="square" stroke-linejoin="bevel" transform="matrix(1.99965,0,0,1.99965,490.82,21.9961)"
font-family="sans" font-size="11" font-weight="100" font-style="normal" 
>
</g>

<g fill="#000000" fill-opacity="1" stroke="#000000" stroke-opacity="1" stroke-width="1" stroke-linecap="square" stroke-linejoin="round" transform="matrix(1.99965,0,0,1.99965,490.82,21.9961)"
font-family="sans" font-size="11" font-weight="100" font-style="normal" 
>
<path vector-effect="none" fill-rule="nonzero" d="M2.79688,2.98438 L3.70313,2.98438 L0.90625,12.0156 L0,12.0156 L2.79688,2.98438 M9.42188,6.14063 C9.67188,5.69271 9.96875,5.36458 10.3125,5.15625 C10.6563,4.94792 11.0625,4.84375 11.5313,4.84375 C12.1563,4.84375 12.638,5.0625 12.9766,5.5 C13.3151,5.9375 13.4844,6.5625 13.4844,7.375 L13.4844,11 L12.4844,11 L12.4844,7.40625 C12.4844,6.82292 12.3828,6.39323 12.1797,6.11719 C11.9766,5.84115 11.6667,5.70313 11.25,5.70313 C10.7396,5.70313 10.3359,5.8724 10.0391,6.21094 C9.74219,6.54948 9.59375,7.01042 9.59375,7.59375 L9.59375,11 L8.59375,11 L8.59375,7.40625 C8.59375,6.82292 8.49219,6.39323 8.28906,6.11719 C8.08594,5.84115 7.77083,5.70313 7.34375,5.70313 C6.84375,5.70313 6.44531,5.8724 6.14844,6.21094 C5.85156,6.54948 5.70313,7.01042 5.70313,7.59375 L5.70313,11 L4.70313,11 L4.70313,4.98438 L5.70313,4.98438 L5.70313,5.92188 C5.92188,5.54688 6.1901,5.27344 6.50781,5.10156 C6.82552,4.92969 7.19792,4.84375 7.625,4.84375 C8.0625,4.84375 8.4349,4.95313 8.74219,5.17188 C9.04948,5.39063 9.27604,5.71354 9.42188,6.14063 M15.4375,4.98438 L16.4375,4.98438 L16.4375,11 L15.4375,11 L15.4375,4.98438 M15.4375,2.64063 L16.4375,2.64063 L16.4375,3.89063 L15.4375,3.89063 L15.4375,2.64063 M17.9844,7.54688 L20.8906,7.54688 L20.8906,8.42188 L17.9844,8.42188 L17.9844,7.54688 M26.2969,5.15625 L26.2969,6.09375 C26.0156,5.94792 25.724,5.84115 25.4219,5.77344 C25.1198,5.70573 24.8073,5.67188 24.4844,5.67188 C23.9948,5.67188 23.6276,5.7474 23.3828,5.89844 C23.138,6.04948 23.0156,6.27083 23.0156,6.5625 C23.0156,6.79167 23.1042,6.97135 23.2813,7.10156 C23.4583,7.23177 23.8125,7.35938 24.3438,7.48438 L24.6719,7.5625 C25.3802,7.70833 25.8802,7.91927 26.1719,8.19531 C26.4635,8.47135 26.6094,8.85417 26.6094,9.34375 C26.6094,9.89583 26.3906,10.3359 25.9531,10.6641 C25.5156,10.9922 24.9063,11.1563 24.125,11.1563 C23.8021,11.1563 23.4661,11.125 23.1172,11.0625 C22.7682,11 22.401,10.9063 22.0156,10.7813 L22.0156,9.76563 C22.3802,9.95313 22.7396,10.0938 23.0938,10.1875 C23.4479,10.2813 23.8021,10.3281 24.1563,10.3281 C24.6146,10.3281 24.9688,10.2474 25.2188,10.0859 C25.4688,9.92448 25.5938,9.70313 25.5938,9.42188 C25.5938,9.15104 25.5052,8.94271 25.3281,8.79688 C25.151,8.65104 24.7552,8.51563 24.1406,8.39063 L23.7969,8.29688 C23.1823,8.17188 22.7396,7.97656 22.4688,7.71094 C22.1979,7.44531 22.0625,7.07813 22.0625,6.60938 C22.0625,6.04688 22.263,5.61198 22.6641,5.30469 C23.0651,4.9974 23.6354,4.84375 24.375,4.84375 C24.7396,4.84375 25.0833,4.86979 25.4063,4.92188 C25.7292,4.97396 26.026,5.05208 26.2969,5.15625 M28.0781,8.625 L28.0781,4.98438 L29.0625,4.98438 L29.0625,8.59375 C29.0625,9.15625 29.1745,9.58073 29.3984,9.86719 C29.6224,10.1536 29.9531,10.2969 30.3906,10.2969 C30.9323,10.2969 31.3568,10.1276 31.6641,9.78906 C31.9714,9.45052 32.125,8.98438 32.125,8.39063 L32.125,4.98438 L33.1094,4.98438 L33.1094,11 L32.125,11 L32.125,10.0781 C31.8854,10.4427 31.6068,10.7135 31.2891,10.8906 C30.9714,11.0677 30.6042,11.1563 30.1875,11.1563 C29.5,11.1563 28.9766,10.9401 28.6172,10.5078 C28.2578,10.0755 28.0781,9.44792 28.0781,8.625 M39.4688,8 C39.4688,7.27083 39.3177,6.70052 39.0156,6.28906 C38.7135,5.8776 38.3021,5.67188 37.7813,5.67188 C37.2604,5.67188 36.8516,5.8776 36.5547,6.28906 C36.2578,6.70052 36.1094,7.27083 36.1094,8 C36.1094,8.72917 36.2578,9.29948 36.5547,9.71094 C36.8516,10.1224 37.2604,10.3281 37.7813,10.3281 C38.3021,10.3281 38.7135,10.1224 39.0156,9.71094 C39.3177,9.29948 39.4688,8.72917 39.4688,8 M36.1094,5.89063 C36.3073,5.53646 36.5651,5.27344 36.8828,5.10156 C37.2005,4.92969 37.5833,4.84375 38.0313,4.84375 C38.7604,4.84375 39.3516,5.13281 39.8047,5.71094 C40.2578,6.28906 40.4844,7.05208 40.4844,8 C40.4844,8.94792 40.2578,9.71094 39.8047,10.2891 C39.3516,10.8672 38.7604,11.1563 38.0313,11.1563 C37.5833,11.1563 37.2005,11.0703 36.8828,10.8984 C36.5651,10.7266 36.3073,10.4583 36.1094,10.0938 L36.1094,11 L35.1094,11 L35.1094,2.64063 L36.1094,2.64063 L36.1094,5.89063 M45.9531,5.15625 L45.9531,6.09375 C45.6719,5.94792 45.3802,5.84115 45.0781,5.77344 C44.776,5.70573 44.4635,5.67188 44.1406,5.67188 C43.651,5.67188 43.2839,5.7474 43.0391,5.89844 C42.7943,6.04948 42.6719,6.27083 42.6719,6.5625 C42.6719,6.79167 42.7604,6.97135 42.9375,7.10156 C43.1146,7.23177 43.4688,7.35938 44,7.48438 L44.3281,7.5625 C45.0365,7.70833 45.5365,7.91927 45.8281,8.19531 C46.1198,8.47135 46.2656,8.85417 46.2656,9.34375 C46.2656,9.89583 46.0469,10.3359 45.6094,10.6641 C45.1719,10.9922 44.5625,11.1563 43.7813,11.1563 C43.4583,11.1563 43.1224,11.125 42.7734,11.0625 C42.4245,11 42.0573,10.9063 41.6719,10.7813 L41.6719,9.76563 C42.0365,9.95313 42.3958,10.0938 42.75,10.1875 C43.1042,10.2813 43.4583,10.3281 43.8125,10.3281 C44.2708,10.3281 44.625,10.2474 44.875,10.0859 C45.125,9.92448 45.25,9.70313 45.25,9.42188 C45.25,9.15104 45.1615,8.94271 44.9844,8.79688 C44.8073,8.65104 44.4115,8.51563 43.7969,8.39063 L43.4531,8.29688 C42.8385,8.17188 42.3958,7.97656 42.125,7.71094 C41.8542,7.44531 41.7188,7.07813 41.7188,6.60938 C41.7188,6.04688 41.9193,5.61198 42.3203,5.30469 C42.7214,4.9974 43.2917,4.84375 44.0313,4.84375 C44.3958,4.84375 44.7396,4.86979 45.0625,4.92188 C45.3854,4.97396 45.6823,5.05208 45.9531,5.15625 M52.1563,5.21875 L52.1563,6.14063 C51.8854,5.98438 51.6094,5.86719 51.3281,5.78906 C51.0469,5.71094 50.7604,5.67188 50.4688,5.67188 C49.8333,5.67188 49.3385,5.875 48.9844,6.28125 C48.6302,6.6875 48.4531,7.26042 48.4531,8 C48.4531,8.72917 48.6302,9.29688 48.9844,9.70313 C49.3385,10.1094 49.8333,10.3125 50.4688,10.3125 C50.7604,10.3125 51.0469,10.276 51.3281,10.2031 C51.6094,10.1302 51.8854,10.0156 52.1563,9.85938 L52.1563,10.7656 C51.8854,10.901 51.6016,11 51.3047,11.0625 C51.0078,11.125 50.6927,11.1563 50.3594,11.1563 C49.4531,11.1563 48.7344,10.8724 48.2031,10.3047 C47.6719,9.73698 47.4063,8.96875 47.4063,8 C47.4063,7.02083 47.6745,6.25 48.2109,5.6875 C48.7474,5.125 49.4844,4.84375 50.4219,4.84375 C50.7344,4.84375 51.0339,4.875 51.3203,4.9375 C51.6068,5 51.8854,5.09375 52.1563,5.21875 M57.3594,5.90625 C57.2552,5.84375 57.138,5.79688 57.0078,5.76563 C56.8776,5.73438 56.7344,5.71875 56.5781,5.71875 C56.0156,5.71875 55.5859,5.90104 55.2891,6.26563 C54.9922,6.63021 54.8438,7.15104 54.8438,7.82813 L54.8438,11 L53.8438,11 L53.8438,4.98438 L54.8438,4.98438 L54.8438,5.92188 C55.0417,5.55729 55.3073,5.28646 55.6406,5.10938 C55.974,4.93229 56.3802,4.84375 56.8594,4.84375 C56.9323,4.84375 57.0078,4.84635 57.0859,4.85156 C57.1641,4.85677 57.2552,4.86979 57.3594,4.89063 L57.3594,5.90625 M58.3906,4.98438 L59.3906,4.98438 L59.3906,11 L58.3906,11 L58.3906,4.98438 M58.3906,2.64063 L59.3906,2.64063 L59.3906,3.89063 L58.3906,3.89063 L58.3906,2.64063 M65.7656,8 C65.7656,7.27083 65.6146,6.70052 65.3125,6.28906 C65.0104,5.8776 64.599,5.67188 64.0781,5.67188 C63.5573,5.67188 63.1484,5.8776 62.8516,6.28906 C62.5547,6.70052 62.4063,7.27083 62.4063,8 C62.4063,8.72917 62.5547,9.29948 62.8516,9.71094 C63.1484,10.1224 63.5573,10.3281 64.0781,10.3281 C64.599,10.3281 65.0104,10.1224 65.3125,9.71094 C65.6146,9.29948 65.7656,8.72917 65.7656,8 M62.4063,5.89063 C62.6042,5.53646 62.862,5.27344 63.1797,5.10156 C63.4974,4.92969 63.8802,4.84375 64.3281,4.84375 C65.0573,4.84375 65.6484,5.13281 66.1016,5.71094 C66.5547,6.28906 66.7813,7.05208 66.7813,8 C66.7813,8.94792 66.5547,9.71094 66.1016,10.2891 C65.6484,10.8672 65.0573,11.1563 64.3281,11.1563 C63.8802,11.1563 63.4974,11.0703 63.1797,10.8984 C62.862,10.7266 62.6042,10.4583 62.4063,10.0938 L62.4063,11 L61.4063,11 L61.4063,2.64063 L62.4063,2.64063 L62.4063,5.89063 M73.5625,7.75 L73.5625,8.23438 L69.0156,8.23438 C69.0573,8.91146 69.2604,9.42708 69.625,9.78125 C69.9896,10.1354 70.5,10.3125 71.1563,10.3125 C71.5417,10.3125 71.9115,10.2656 72.2656,10.1719 C72.6198,10.0781 72.974,9.94271 73.3281,9.76563 L73.3281,10.6875 C72.974,10.8438 72.6094,10.9609 72.2344,11.0391 C71.8594,11.1172 71.4844,11.1563 71.1094,11.1563 C70.1406,11.1563 69.3776,10.8776 68.8203,10.3203 C68.263,9.76302 67.9844,9.00521 67.9844,8.04688 C67.9844,7.06771 68.25,6.28906 68.7813,5.71094 C69.3125,5.13281 70.0313,4.84375 70.9375,4.84375 C71.7396,4.84375 72.3776,5.10417 72.8516,5.625 C73.3255,6.14583 73.5625,6.85417 73.5625,7.75 M72.5625,7.45313 C72.5625,6.91146 72.4141,6.47917 72.1172,6.15625 C71.8203,5.83333 71.4271,5.67188 70.9375,5.67188 C70.3854,5.67188 69.9453,5.82813 69.6172,6.14063 C69.2891,6.45313 69.099,6.89063 69.0469,7.45313 L72.5625,7.45313 M78.6563,5.90625 C78.5521,5.84375 78.4349,5.79688 78.3047,5.76563 C78.1745,5.73438 78.0313,5.71875 77.875,5.71875 C77.3125,5.71875 76.8828,5.90104 76.5859,6.26563 C76.2891,6.63021 76.1406,7.15104 76.1406,7.82813 L76.1406,11 L75.1406,11 L75.1406,4.98438 L76.1406,4.98438 L76.1406,5.92188 C76.3385,5.55729 76.6042,5.28646 76.9375,5.10938 C77.2708,4.93229 77.6771,4.84375 78.1563,4.84375 C78.2292,4.84375 78.3047,4.84635 78.3828,4.85156 C78.4609,4.85677 78.5521,4.86979 78.6563,4.89063 L78.6563,5.90625"/>
</g>

<g fill="none" stroke="#000000" stroke-opacity="1" stroke-width="1" stroke-linecap="square" stroke-linejoin="bevel" transform="matrix(1.99965,0,0,1.99965,490.82,21.9961)"
font-family="sans" font-size="11" font-weight="100" font-style="normal" 
>
</g>

<g fill="none" stroke="#000000" stroke-opacity="1" stroke-width="1" stroke-linecap="square" stroke-linejoin="bevel" transform="matrix(1.99965,0,0,1.99965,490.82,21.9961)"
font-family="Ubuntu" font-size="11" font-weight="400" font-style="normal" 
>
</g>

<g fill="none" stroke="#000000" stroke-opacity="1" stroke-width="1" stroke-linecap="square" stroke-linejoin="bevel" transform="matrix(1.99965,0,0,1.99965,0.00279951,179.968)"
font-family="Ubuntu" font-size="11" font-weight="400" font-style="normal" 
>
</g>

<g fill="none" stroke="#000000" stroke-opacity="1" stroke-width="1" stroke-linecap="square" stroke-linejoin="bevel" transform="matrix(1.99965,0,0,1.99965,0.00279951,179.968)"
font-family="Ubuntu" font-size="11" font-weight="400" font-style="normal" 
>
</g>

<g fill="none" stroke="#000000" stroke-opacity="1" stroke-width="1" stroke-linecap="square" stroke-linejoin="bevel" transform="matrix(1.99965,0,0,1.99965,0.00279951,179.968)"
font-family="Ubuntu" font-size="11" font-weight="400" font-style="normal" 
>
</g>

<g fill="none" stroke="#000000" stroke-opacity="1" stroke-width="1" stroke-linecap="square" stroke-linejoin="round" transform="matrix(1.99965,0,0,1.99965,0.00279951,179.968)"
font-family="Ubuntu" font-size="11" font-weight="400" font-style="normal" 
>
<path vector-effect="none" fill-rule="evenodd" d="M113.27,-51.536 C144.57,-55.27 184.06,-59.983 217.26,-63.944 "/>
</g>

<g fill="none" stroke="#000000" stroke-opacity="1" stroke-width="1" stroke-linecap="square" stroke-linejoin="bevel" transform="matrix(1.99965,0,0,1.99965,0.00279951,179.968)"
font-family="Ubuntu" font-size="11" font-weight="400" font-style="normal" 
>
</g>

<g fill="none" stroke="#000000" stroke-opacity="1" stroke-width="1" stroke-linecap="square" stroke-linejoin="bevel" transform="matrix(1.99965,0,0,1.99965,248.174,38.9932)"
font-family="Ubuntu" font-size="11" font-weight="400" font-style="normal" 
>
</g>

<g fill="none" stroke="#000000" stroke-opacity="1" stroke-width="1" stroke-linecap="square" stroke-linejoin="bevel" transform="matrix(1.99965,0,0,1.99965,248.174,38.9932)"
font-family="sans" font-size="11" font-weight="100" font-style="normal" 
>
</g>

<g fill="#000000" fill-opacity="1" stroke="#000000" stroke-opacity="1" stroke-width="1" stroke-linecap="square" stroke-linejoin="round" transform="matrix(1.99965,0,0,1.99965,248.174,38.9932)"
font-family="sans" font-size="11" font-weight="100" font-style="normal" 
>
<path vector-effect="none" fill-rule="nonzero" d="M2.79688,2.98438 L3.70313,2.98438 L0.90625,12.0156 L0,12.0156 L2.79688,2.98438 M9.0625,5.21875 L9.0625,6.14063 C8.79167,5.98438 8.51563,5.86719 8.23438,5.78906 C7.95313,5.71094 7.66667,5.67188 7.375,5.67188 C6.73958,5.67188 6.24479,5.875 5.89063,6.28125 C5.53646,6.6875 5.35938,7.26042 5.35938,8 C5.35938,8.72917 5.53646,9.29688 5.89063,9.70313 C6.24479,10.1094 6.73958,10.3125 7.375,10.3125 C7.66667,10.3125 7.95313,10.276 8.23438,10.2031 C8.51563,10.1302 8.79167,10.0156 9.0625,9.85938 L9.0625,10.7656 C8.79167,10.901 8.50781,11 8.21094,11.0625 C7.91406,11.125 7.59896,11.1563 7.26563,11.1563 C6.35938,11.1563 5.64063,10.8724 5.10938,10.3047 C4.57813,9.73698 4.3125,8.96875 4.3125,8 C4.3125,7.02083 4.58073,6.25 5.11719,5.6875 C5.65365,5.125 6.39063,4.84375 7.32813,4.84375 C7.64063,4.84375 7.9401,4.875 8.22656,4.9375 C8.51302,5 8.79167,5.09375 9.0625,5.21875 M15.7813,7.375 L15.7813,11 L14.7969,11 L14.7969,7.40625 C14.7969,6.83333 14.6875,6.40625 14.4688,6.125 C14.25,5.84375 13.9167,5.70313 13.4688,5.70313 C12.9375,5.70313 12.5182,5.8724 12.2109,6.21094 C11.9036,6.54948 11.75,7.01042 11.75,7.59375 L11.75,11 L10.75,11 L10.75,2.64063 L11.75,2.64063 L11.75,5.92188 C11.9792,5.55729 12.2552,5.28646 12.5781,5.10938 C12.901,4.93229 13.2708,4.84375 13.6875,4.84375 C14.375,4.84375 14.8958,5.05729 15.25,5.48438 C15.6042,5.91146 15.7813,6.54167 15.7813,7.375 M20.4844,7.96875 C19.6927,7.96875 19.1432,8.0625 18.8359,8.25 C18.5286,8.4375 18.375,8.75 18.375,9.1875 C18.375,9.53125 18.4896,9.80729 18.7188,10.0156 C18.9479,10.224 19.2604,10.3281 19.6563,10.3281 C20.2083,10.3281 20.6484,10.1328 20.9766,9.74219 C21.3047,9.35156 21.4688,8.83854 21.4688,8.20313 L21.4688,7.96875 L20.4844,7.96875 M22.4531,7.5625 L22.4531,11 L21.4688,11 L21.4688,10.0938 C21.25,10.4583 20.9714,10.7266 20.6328,10.8984 C20.2943,11.0703 19.8802,11.1563 19.3906,11.1563 C18.776,11.1563 18.2865,10.9844 17.9219,10.6406 C17.5573,10.2969 17.375,9.83333 17.375,9.25 C17.375,8.57292 17.6016,8.0625 18.0547,7.71875 C18.5078,7.375 19.1875,7.20313 20.0938,7.20313 L21.4688,7.20313 L21.4688,7.10938 C21.4688,6.65104 21.3203,6.29688 21.0234,6.04688 C20.7266,5.79688 20.3073,5.67188 19.7656,5.67188 C19.4219,5.67188 19.0859,5.71354 18.7578,5.79688 C18.4297,5.88021 18.1146,6.00521 17.8125,6.17188 L17.8125,5.26563 C18.1771,5.11979 18.5313,5.01302 18.875,4.94531 C19.2188,4.8776 19.5469,4.84375 19.8594,4.84375 C20.7344,4.84375 21.3854,5.06771 21.8125,5.51563 C22.2396,5.96354 22.4531,6.64583 22.4531,7.5625 M25.4688,3.28125 L25.4688,4.98438 L27.5,4.98438 L27.5,5.75 L25.4688,5.75 L25.4688,9.01563 C25.4688,9.50521 25.5365,9.82031 25.6719,9.96094 C25.8073,10.1016 26.0781,10.1719 26.4844,10.1719 L27.5,10.1719 L27.5,11 L26.4844,11 C25.724,11 25.1979,10.8568 24.9063,10.5703 C24.6146,10.2839 24.4688,9.76563 24.4688,9.01563 L24.4688,5.75 L23.75,5.75 L23.75,4.98438 L24.4688,4.98438 L24.4688,3.28125 L25.4688,3.28125"/>
</g>

<g fill="none" stroke="#000000" stroke-opacity="1" stroke-width="1" stroke-linecap="square" stroke-linejoin="bevel" transform="matrix(1.99965,0,0,1.99965,248.174,38.9932)"
font-family="sans" font-size="11" font-weight="100" font-style="normal" 
>
</g>

<g fill="none" stroke="#000000" stroke-opacity="1" stroke-width="1" stroke-linecap="square" stroke-linejoin="bevel" transform="matrix(1.99965,0,0,1.99965,248.174,38.9932)"
font-family="Ubuntu" font-size="11" font-weight="400" font-style="normal" 
>
</g>

<g fill="none" stroke="#000000" stroke-opacity="1" stroke-width="1" stroke-linecap="square" stroke-linejoin="bevel" transform="matrix(1.99965,0,0,1.99965,0.00279951,179.968)"
font-family="Ubuntu" font-size="11" font-weight="400" font-style="normal" 
>
</g>

<g fill="#000000" fill-opacity="1" stroke="#000000" stroke-opacity="1" stroke-width="1" stroke-linecap="square" stroke-linejoin="round" transform="matrix(1.99965,0,0,1.99965,0.00279951,179.968)"
font-family="Ubuntu" font-size="11" font-weight="400" font-style="normal" 
>
<path vector-effect="none" fill-rule="evenodd" d="M217.26,-63.944 L217.681,-60.4125 L227.35,-65.147 L216.839,-67.4755 L217.26,-63.944"/>
</g>

<g fill="none" stroke="#000000" stroke-opacity="1" stroke-width="1" stroke-linecap="square" stroke-linejoin="bevel" transform="matrix(1.99965,0,0,1.99965,0.00279951,179.968)"
font-family="Ubuntu" font-size="11" font-weight="400" font-style="normal" 
>
</g>

<g fill="none" stroke="#000000" stroke-opacity="1" stroke-width="1" stroke-linecap="square" stroke-linejoin="bevel" transform="matrix(1.99965,0,0,1.99965,0.00279951,179.968)"
font-family="Ubuntu" font-size="11" font-weight="400" font-style="normal" 
>
</g>

<g fill="none" stroke="#000000" stroke-opacity="1" stroke-width="1" stroke-linecap="square" stroke-linejoin="bevel" transform="matrix(1.99965,0,0,1.99965,0.00279951,179.968)"
font-family="Ubuntu" font-size="11" font-weight="400" font-style="normal" 
>
</g>

<g fill="none" stroke="#000000" stroke-opacity="1" stroke-width="1" stroke-linecap="square" stroke-linejoin="bevel" transform="matrix(1.99965,0,0,1.99965,0.00279951,179.968)"
font-family="Ubuntu" font-size="11" font-weight="400" font-style="normal" 
>
</g>

<g fill="none" stroke="#000000" stroke-opacity="1" stroke-width="1" stroke-linecap="square" stroke-linejoin="round" transform="matrix(1.99965,0,0,1.99965,0.00279951,179.968)"
font-family="Ubuntu" font-size="11" font-weight="400" font-style="normal" 
>
<path vector-effect="none" fill-rule="evenodd" d="M111.1,-36.875 C115.79,-36.215 120.47,-35.58 124.99,-35 C140.08,-33.063 156,-31.179 171.71,-29.415 "/>
</g>

<g fill="none" stroke="#000000" stroke-opacity="1" stroke-width="1" stroke-linecap="square" stroke-linejoin="bevel" transform="matrix(1.99965,0,0,1.99965,0.00279951,179.968)"
font-family="Ubuntu" font-size="11" font-weight="400" font-style="normal" 
>
</g>

<g fill="none" stroke="#000000" stroke-opacity="1" stroke-width="1" stroke-linecap="square" stroke-linejoin="bevel" transform="matrix(1.99965,0,0,1.99965,248.174,80.9858)"
font-family="Ubuntu" font-size="11" font-weight="400" font-style="normal" 
>
</g>

<g fill="none" stroke="#000000" stroke-opacity="1" stroke-width="1" stroke-linecap="square" stroke-linejoin="bevel" transform="matrix(1.99965,0,0,1.99965,248.174,80.9858)"
font-family="sans" font-size="11" font-weight="100" font-style="normal" 
>
</g>

<g fill="#000000" fill-opacity="1" stroke="#000000" stroke-opacity="1" stroke-width="1" stroke-linecap="square" stroke-linejoin="round" transform="matrix(1.99965,0,0,1.99965,248.174,80.9858)"
font-family="sans" font-size="11" font-weight="100" font-style="normal" 
>
<path vector-effect="none" fill-rule="nonzero" d="M2.79688,2.98438 L3.70313,2.98438 L0.90625,12.0156 L0,12.0156 L2.79688,2.98438 M9.0625,5.21875 L9.0625,6.14063 C8.79167,5.98438 8.51563,5.86719 8.23438,5.78906 C7.95313,5.71094 7.66667,5.67188 7.375,5.67188 C6.73958,5.67188 6.24479,5.875 5.89063,6.28125 C5.53646,6.6875 5.35938,7.26042 5.35938,8 C5.35938,8.72917 5.53646,9.29688 5.89063,9.70313 C6.24479,10.1094 6.73958,10.3125 7.375,10.3125 C7.66667,10.3125 7.95313,10.276 8.23438,10.2031 C8.51563,10.1302 8.79167,10.0156 9.0625,9.85938 L9.0625,10.7656 C8.79167,10.901 8.50781,11 8.21094,11.0625 C7.91406,11.125 7.59896,11.1563 7.26563,11.1563 C6.35938,11.1563 5.64063,10.8724 5.10938,10.3047 C4.57813,9.73698 4.3125,8.96875 4.3125,8 C4.3125,7.02083 4.58073,6.25 5.11719,5.6875 C5.65365,5.125 6.39063,4.84375 7.32813,4.84375 C7.64063,4.84375 7.9401,4.875 8.22656,4.9375 C8.51302,5 8.79167,5.09375 9.0625,5.21875 M15.7813,7.375 L15.7813,11 L14.7969,11 L14.7969,7.40625 C14.7969,6.83333 14.6875,6.40625 14.4688,6.125 C14.25,5.84375 13.9167,5.70313 13.4688,5.70313 C12.9375,5.70313 12.5182,5.8724 12.2109,6.21094 C11.9036,6.54948 11.75,7.01042 11.75,7.59375 L11.75,11 L10.75,11 L10.75,2.64063 L11.75,2.64063 L11.75,5.92188 C11.9792,5.55729 12.2552,5.28646 12.5781,5.10938 C12.901,4.93229 13.2708,4.84375 13.6875,4.84375 C14.375,4.84375 14.8958,5.05729 15.25,5.48438 C15.6042,5.91146 15.7813,6.54167 15.7813,7.375 M20.4844,7.96875 C19.6927,7.96875 19.1432,8.0625 18.8359,8.25 C18.5286,8.4375 18.375,8.75 18.375,9.1875 C18.375,9.53125 18.4896,9.80729 18.7188,10.0156 C18.9479,10.224 19.2604,10.3281 19.6563,10.3281 C20.2083,10.3281 20.6484,10.1328 20.9766,9.74219 C21.3047,9.35156 21.4688,8.83854 21.4688,8.20313 L21.4688,7.96875 L20.4844,7.96875 M22.4531,7.5625 L22.4531,11 L21.4688,11 L21.4688,10.0938 C21.25,10.4583 20.9714,10.7266 20.6328,10.8984 C20.2943,11.0703 19.8802,11.1563 19.3906,11.1563 C18.776,11.1563 18.2865,10.9844 17.9219,10.6406 C17.5573,10.2969 17.375,9.83333 17.375,9.25 C17.375,8.57292 17.6016,8.0625 18.0547,7.71875 C18.5078,7.375 19.1875,7.20313 20.0938,7.20313 L21.4688,7.20313 L21.4688,7.10938 C21.4688,6.65104 21.3203,6.29688 21.0234,6.04688 C20.7266,5.79688 20.3073,5.67188 19.7656,5.67188 C19.4219,5.67188 19.0859,5.71354 18.7578,5.79688 C18.4297,5.88021 18.1146,6.00521 17.8125,6.17188 L17.8125,5.26563 C18.1771,5.11979 18.5313,5.01302 18.875,4.94531 C19.2188,4.8776 19.5469,4.84375 19.8594,4.84375 C20.7344,4.84375 21.3854,5.06771 21.8125,5.51563 C22.2396,5.96354 22.4531,6.64583 22.4531,7.5625 M25.4688,3.28125 L25.4688,4.98438 L27.5,4.98438 L27.5,5.75 L25.4688,5.75 L25.4688,9.01563 C25.4688,9.50521 25.5365,9.82031 25.6719,9.96094 C25.8073,10.1016 26.0781,10.1719 26.4844,10.1719 L27.5,10.1719 L27.5,11 L26.4844,11 C25.724,11 25.1979,10.8568 24.9063,10.5703 C24.6146,10.2839 24.4688,9.76563 24.4688,9.01563 L24.4688,5.75 L23.75,5.75 L23.75,4.98438 L24.4688,4.98438 L24.4688,3.28125 L25.4688,3.28125"/>
</g>

<g fill="none" stroke="#000000" stroke-opacity="1" stroke-width="1" stroke-linecap="square" stroke-linejoin="bevel" transform="matrix(1.99965,0,0,1.99965,248.174,80.9858)"
font-family="sans" font-size="11" font-weight="100" font-style="normal" 
>
</g>

<g fill="none" stroke="#000000" stroke-opacity="1" stroke-width="1" stroke-linecap="square" stroke-linejoin="bevel" transform="matrix(1.99965,0,0,1.99965,248.174,80.9858)"
font-family="Ubuntu" font-size="11" font-weight="400" font-style="normal" 
>
</g>

<g fill="none" stroke="#000000" stroke-opacity="1" stroke-width="1" stroke-linecap="square" stroke-linejoin="bevel" transform="matrix(1.99965,0,0,1.99965,0.00279951,179.968)"
font-family="Ubuntu" font-size="11" font-weight="400" font-style="normal" 
>
</g>

<g fill="#000000" fill-opacity="1" stroke="#000000" stroke-opacity="1" stroke-width="1" stroke-linecap="square" stroke-linejoin="round" transform="matrix(1.99965,0,0,1.99965,0.00279951,179.968)"
font-family="Ubuntu" font-size="11" font-weight="400" font-style="normal" 
>
<path vector-effect="none" fill-rule="evenodd" d="M171.71,-29.415 L171.31,-25.8205 L181.98,-28.273 L172.11,-33.0095 L171.71,-29.415"/>
</g>

<g fill="none" stroke="#000000" stroke-opacity="1" stroke-width="1" stroke-linecap="square" stroke-linejoin="bevel" transform="matrix(1.99965,0,0,1.99965,0.00279951,179.968)"
font-family="Ubuntu" font-size="11" font-weight="400" font-style="normal" 
>
</g>

<g fill="none" stroke="#000000" stroke-opacity="1" stroke-width="1" stroke-linecap="square" stroke-linejoin="bevel" transform="matrix(1,0,0,1,0,0)"
font-family="Ubuntu" font-size="11" font-weight="400" font-style="normal" 
>
</g>
</g>
</svg>
