<?xml version="1.0" encoding="UTF-8" standalone="no"?>
<svg width="200.025mm" height="25.4mm"
 xmlns="http://www.w3.org/2000/svg" xmlns:xlink="http://www.w3.org/1999/xlink"  version="1.2" baseProfile="tiny">
<title>Qt SVG Document</title>
<desc>Generated with Qt</desc>
<defs>
</defs>
<g fill="none" stroke="black" stroke-width="1" fill-rule="evenodd" stroke-linecap="square" stroke-linejoin="bevel" >

<g fill="none" stroke="#000000" stroke-opacity="1" stroke-width="1" stroke-linecap="square" stroke-linejoin="bevel" transform="matrix(1,0,0,1,0,0)"
font-family="Ubuntu" font-size="11" font-weight="400" font-style="normal" 
>
</g>

<g fill="none" stroke="#000000" stroke-opacity="1" stroke-width="1" stroke-linecap="square" stroke-linejoin="bevel" transform="matrix(1,0,0,1,0,0)"
font-family="Ubuntu" font-size="11" font-weight="400" font-style="normal" 
>
</g>

<g fill="none" stroke="#000000" stroke-opacity="1" stroke-width="1" stroke-linecap="square" stroke-linejoin="bevel" transform="matrix(2,0,0,2,0.0028,72)"
font-family="Ubuntu" font-size="11" font-weight="400" font-style="normal" 
>
</g>

<g fill="#ffffff" fill-opacity="1" stroke="none" transform="matrix(2,0,0,2,0.0028,72)"
font-family="Ubuntu" font-size="11" font-weight="400" font-style="normal" 
>
<rect x="-0.0014" y="-36" width="283.475" height="36"/>
</g>

<g fill="none" stroke="#000000" stroke-opacity="1" stroke-width="1" stroke-linecap="square" stroke-linejoin="bevel" transform="matrix(2,0,0,2,0.0028,72)"
font-family="Ubuntu" font-size="11" font-weight="400" font-style="normal" 
>
</g>

<g fill="none" stroke="#000000" stroke-opacity="1" stroke-width="1" stroke-linecap="square" stroke-linejoin="bevel" transform="matrix(2,0,0,2,0.0028,72)"
font-family="Ubuntu" font-size="11" font-weight="400" font-style="normal" 
>
</g>

<g fill="none" stroke="#000000" stroke-opacity="1" stroke-width="1" stroke-linecap="square" stroke-linejoin="bevel" transform="matrix(2,0,0,2,0.0028,72)"
font-family="Ubuntu" font-size="11" font-weight="400" font-style="normal" 
>
</g>

<g fill="none" stroke="#000000" stroke-opacity="1" stroke-width="1" stroke-linecap="square" stroke-linejoin="bevel" transform="matrix(2,0,0,2,0.0028,72)"
font-family="Ubuntu" font-size="11" font-weight="400" font-style="normal" 
>
</g>

<g fill="none" stroke="#000000" stroke-opacity="1" stroke-width="1" stroke-linecap="square" stroke-linejoin="round" transform="matrix(2,0,0,2,0.0028,72)"
font-family="Ubuntu" font-size="11" font-weight="400" font-style="normal" 
>
<ellipse cx="58.495" cy="-18" rx="57.9964" ry="17.5"/>
</g>

<g fill="none" stroke="#000000" stroke-opacity="1" stroke-width="1" stroke-linecap="square" stroke-linejoin="bevel" transform="matrix(2,0,0,2,0.0028,72)"
font-family="Ubuntu" font-size="11" font-weight="400" font-style="normal" 
>
</g>

<g fill="none" stroke="#000000" stroke-opacity="1" stroke-width="1" stroke-linecap="square" stroke-linejoin="bevel" transform="matrix(2,0,0,2,44.6022,22)"
font-family="Ubuntu" font-size="11" font-weight="400" font-style="normal" 
>
</g>

<g fill="none" stroke="#000000" stroke-opacity="1" stroke-width="1" stroke-linecap="square" stroke-linejoin="bevel" transform="matrix(2,0,0,2,44.6022,22)"
font-family="sans" font-size="11" font-weight="100" font-style="normal" 
>
</g>

<g fill="#000000" fill-opacity="1" stroke="#000000" stroke-opacity="1" stroke-width="1" stroke-linecap="square" stroke-linejoin="round" transform="matrix(2,0,0,2,44.6022,22)"
font-family="sans" font-size="11" font-weight="100" font-style="normal" 
>
<path vector-effect="none" fill-rule="nonzero" d="M2.79688,2.98438 L3.70313,2.98438 L0.90625,12.0156 L0,12.0156 L2.79688,2.98438 M9.42188,6.14063 C9.67188,5.69271 9.96875,5.36458 10.3125,5.15625 C10.6563,4.94792 11.0625,4.84375 11.5313,4.84375 C12.1563,4.84375 12.638,5.0625 12.9766,5.5 C13.3151,5.9375 13.4844,6.5625 13.4844,7.375 L13.4844,11 L12.4844,11 L12.4844,7.40625 C12.4844,6.82292 12.3828,6.39323 12.1797,6.11719 C11.9766,5.84115 11.6667,5.70313 11.25,5.70313 C10.7396,5.70313 10.3359,5.8724 10.0391,6.21094 C9.74219,6.54948 9.59375,7.01042 9.59375,7.59375 L9.59375,11 L8.59375,11 L8.59375,7.40625 C8.59375,6.82292 8.49219,6.39323 8.28906,6.11719 C8.08594,5.84115 7.77083,5.70313 7.34375,5.70313 C6.84375,5.70313 6.44531,5.8724 6.14844,6.21094 C5.85156,6.54948 5.70313,7.01042 5.70313,7.59375 L5.70313,11 L4.70313,11 L4.70313,4.98438 L5.70313,4.98438 L5.70313,5.92188 C5.92188,5.54688 6.1901,5.27344 6.50781,5.10156 C6.82552,4.92969 7.19792,4.84375 7.625,4.84375 C8.0625,4.84375 8.4349,4.95313 8.74219,5.17188 C9.04948,5.39063 9.27604,5.71354 9.42188,6.14063 M15.4375,4.98438 L16.4375,4.98438 L16.4375,11 L15.4375,11 L15.4375,4.98438 M15.4375,2.64063 L16.4375,2.64063 L16.4375,3.89063 L15.4375,3.89063 L15.4375,2.64063 M17.9844,7.54688 L20.8906,7.54688 L20.8906,8.42188 L17.9844,8.42188 L17.9844,7.54688 M23.4219,10.0938 L23.4219,13.2813 L22.4219,13.2813 L22.4219,4.98438 L23.4219,4.98438 L23.4219,5.89063 C23.6198,5.53646 23.8776,5.27344 24.1953,5.10156 C24.513,4.92969 24.8958,4.84375 25.3438,4.84375 C26.0729,4.84375 26.6641,5.13281 27.1172,5.71094 C27.5703,6.28906 27.7969,7.05208 27.7969,8 C27.7969,8.94792 27.5703,9.71094 27.1172,10.2891 C26.6641,10.8672 26.0729,11.1563 25.3438,11.1563 C24.8958,11.1563 24.513,11.0703 24.1953,10.8984 C23.8776,10.7266 23.6198,10.4583 23.4219,10.0938 M26.7813,8 C26.7813,7.27083 26.6302,6.70052 26.3281,6.28906 C26.026,5.8776 25.6146,5.67188 25.0938,5.67188 C24.5729,5.67188 24.1641,5.8776 23.8672,6.28906 C23.5703,6.70052 23.4219,7.27083 23.4219,8 C23.4219,8.72917 23.5703,9.29948 23.8672,9.71094 C24.1641,10.1224 24.5729,10.3281 25.0938,10.3281 C25.6146,10.3281 26.026,10.1224 26.3281,9.71094 C26.6302,9.29948 26.7813,8.72917 26.7813,8 M29.3281,8.625 L29.3281,4.98438 L30.3125,4.98438 L30.3125,8.59375 C30.3125,9.15625 30.4245,9.58073 30.6484,9.86719 C30.8724,10.1536 31.2031,10.2969 31.6406,10.2969 C32.1823,10.2969 32.6068,10.1276 32.9141,9.78906 C33.2214,9.45052 33.375,8.98438 33.375,8.39063 L33.375,4.98438 L34.3594,4.98438 L34.3594,11 L33.375,11 L33.375,10.0781 C33.1354,10.4427 32.8568,10.7135 32.5391,10.8906 C32.2214,11.0677 31.8542,11.1563 31.4375,11.1563 C30.75,11.1563 30.2266,10.9401 29.8672,10.5078 C29.5078,10.0755 29.3281,9.44792 29.3281,8.625 M40.7188,8 C40.7188,7.27083 40.5677,6.70052 40.2656,6.28906 C39.9635,5.8776 39.5521,5.67188 39.0313,5.67188 C38.5104,5.67188 38.1016,5.8776 37.8047,6.28906 C37.5078,6.70052 37.3594,7.27083 37.3594,8 C37.3594,8.72917 37.5078,9.29948 37.8047,9.71094 C38.1016,10.1224 38.5104,10.3281 39.0313,10.3281 C39.5521,10.3281 39.9635,10.1224 40.2656,9.71094 C40.5677,9.29948 40.7188,8.72917 40.7188,8 M37.3594,5.89063 C37.5573,5.53646 37.8151,5.27344 38.1328,5.10156 C38.4505,4.92969 38.8333,4.84375 39.2813,4.84375 C40.0104,4.84375 40.6016,5.13281 41.0547,5.71094 C41.5078,6.28906 41.7344,7.05208 41.7344,8 C41.7344,8.94792 41.5078,9.71094 41.0547,10.2891 C40.6016,10.8672 40.0104,11.1563 39.2813,11.1563 C38.8333,11.1563 38.4505,11.0703 38.1328,10.8984 C37.8151,10.7266 37.5573,10.4583 37.3594,10.0938 L37.3594,11 L36.3594,11 L36.3594,2.64063 L37.3594,2.64063 L37.3594,5.89063 M43.3594,2.64063 L44.3594,2.64063 L44.3594,11 L43.3594,11 L43.3594,2.64063 M46.4063,4.98438 L47.4063,4.98438 L47.4063,11 L46.4063,11 L46.4063,4.98438 M46.4063,2.64063 L47.4063,2.64063 L47.4063,3.89063 L46.4063,3.89063 L46.4063,2.64063 M53.2969,5.15625 L53.2969,6.09375 C53.0156,5.94792 52.724,5.84115 52.4219,5.77344 C52.1198,5.70573 51.8073,5.67188 51.4844,5.67188 C50.9948,5.67188 50.6276,5.7474 50.3828,5.89844 C50.138,6.04948 50.0156,6.27083 50.0156,6.5625 C50.0156,6.79167 50.1042,6.97135 50.2813,7.10156 C50.4583,7.23177 50.8125,7.35938 51.3438,7.48438 L51.6719,7.5625 C52.3802,7.70833 52.8802,7.91927 53.1719,8.19531 C53.4635,8.47135 53.6094,8.85417 53.6094,9.34375 C53.6094,9.89583 53.3906,10.3359 52.9531,10.6641 C52.5156,10.9922 51.9063,11.1563 51.125,11.1563 C50.8021,11.1563 50.4661,11.125 50.1172,11.0625 C49.7682,11 49.401,10.9063 49.0156,10.7813 L49.0156,9.76563 C49.3802,9.95313 49.7396,10.0938 50.0938,10.1875 C50.4479,10.2813 50.8021,10.3281 51.1563,10.3281 C51.6146,10.3281 51.9688,10.2474 52.2188,10.0859 C52.4688,9.92448 52.5938,9.70313 52.5938,9.42188 C52.5938,9.15104 52.5052,8.94271 52.3281,8.79688 C52.151,8.65104 51.7552,8.51563 51.1406,8.39063 L50.7969,8.29688 C50.1823,8.17188 49.7396,7.97656 49.4688,7.71094 C49.1979,7.44531 49.0625,7.07813 49.0625,6.60938 C49.0625,6.04688 49.263,5.61198 49.6641,5.30469 C50.0651,4.9974 50.6354,4.84375 51.375,4.84375 C51.7396,4.84375 52.0833,4.86979 52.4063,4.92188 C52.7292,4.97396 53.026,5.05208 53.2969,5.15625 M60.1719,7.375 L60.1719,11 L59.1875,11 L59.1875,7.40625 C59.1875,6.83333 59.0781,6.40625 58.8594,6.125 C58.6406,5.84375 58.3073,5.70313 57.8594,5.70313 C57.3281,5.70313 56.9089,5.8724 56.6016,6.21094 C56.2943,6.54948 56.1406,7.01042 56.1406,7.59375 L56.1406,11 L55.1406,11 L55.1406,2.64063 L56.1406,2.64063 L56.1406,5.92188 C56.3698,5.55729 56.6458,5.28646 56.9688,5.10938 C57.2917,4.93229 57.6615,4.84375 58.0781,4.84375 C58.7656,4.84375 59.2865,5.05729 59.6406,5.48438 C59.9948,5.91146 60.1719,6.54167 60.1719,7.375 M67.2969,7.75 L67.2969,8.23438 L62.75,8.23438 C62.7917,8.91146 62.9948,9.42708 63.3594,9.78125 C63.724,10.1354 64.2344,10.3125 64.8906,10.3125 C65.276,10.3125 65.6458,10.2656 66,10.1719 C66.3542,10.0781 66.7083,9.94271 67.0625,9.76563 L67.0625,10.6875 C66.7083,10.8438 66.3438,10.9609 65.9688,11.0391 C65.5938,11.1172 65.2188,11.1563 64.8438,11.1563 C63.875,11.1563 63.112,10.8776 62.5547,10.3203 C61.9974,9.76302 61.7188,9.00521 61.7188,8.04688 C61.7188,7.06771 61.9844,6.28906 62.5156,5.71094 C63.0469,5.13281 63.7656,4.84375 64.6719,4.84375 C65.474,4.84375 66.112,5.10417 66.5859,5.625 C67.0599,6.14583 67.2969,6.85417 67.2969,7.75 M66.2969,7.45313 C66.2969,6.91146 66.1484,6.47917 65.8516,6.15625 C65.5547,5.83333 65.1615,5.67188 64.6719,5.67188 C64.1198,5.67188 63.6797,5.82813 63.3516,6.14063 C63.0234,6.45313 62.8333,6.89063 62.7813,7.45313 L66.2969,7.45313 M72.3906,5.90625 C72.2865,5.84375 72.1693,5.79688 72.0391,5.76563 C71.9089,5.73438 71.7656,5.71875 71.6094,5.71875 C71.0469,5.71875 70.6172,5.90104 70.3203,6.26563 C70.0234,6.63021 69.875,7.15104 69.875,7.82813 L69.875,11 L68.875,11 L68.875,4.98438 L69.875,4.98438 L69.875,5.92188 C70.0729,5.55729 70.3385,5.28646 70.6719,5.10938 C71.0052,4.93229 71.4115,4.84375 71.8906,4.84375 C71.9635,4.84375 72.0391,4.84635 72.1172,4.85156 C72.1953,4.85677 72.2865,4.86979 72.3906,4.89063 L72.3906,5.90625"/>
</g>

<g fill="none" stroke="#000000" stroke-opacity="1" stroke-width="1" stroke-linecap="square" stroke-linejoin="bevel" transform="matrix(2,0,0,2,44.6022,22)"
font-family="sans" font-size="11" font-weight="100" font-style="normal" 
>
</g>

<g fill="none" stroke="#000000" stroke-opacity="1" stroke-width="1" stroke-linecap="square" stroke-linejoin="bevel" transform="matrix(2,0,0,2,44.6022,22)"
font-family="Ubuntu" font-size="11" font-weight="400" font-style="normal" 
>
</g>

<g fill="none" stroke="#000000" stroke-opacity="1" stroke-width="1" stroke-linecap="square" stroke-linejoin="bevel" transform="matrix(2,0,0,2,0.0028,72)"
font-family="Ubuntu" font-size="11" font-weight="400" font-style="normal" 
>
</g>

<g fill="none" stroke="#000000" stroke-opacity="1" stroke-width="1" stroke-linecap="square" stroke-linejoin="bevel" transform="matrix(2,0,0,2,0.0028,72)"
font-family="Ubuntu" font-size="11" font-weight="400" font-style="normal" 
>
</g>

<g fill="none" stroke="#000000" stroke-opacity="1" stroke-width="1" stroke-linecap="square" stroke-linejoin="bevel" transform="matrix(2,0,0,2,0.0028,72)"
font-family="Ubuntu" font-size="11" font-weight="400" font-style="normal" 
>
</g>

<g fill="none" stroke="#000000" stroke-opacity="1" stroke-width="1" stroke-linecap="square" stroke-linejoin="round" transform="matrix(2,0,0,2,0.0028,72)"
font-family="Ubuntu" font-size="11" font-weight="400" font-style="normal" 
>
<ellipse cx="221.73" cy="-18" rx="61.2436" ry="17.5"/>
</g>

<g fill="none" stroke="#000000" stroke-opacity="1" stroke-width="1" stroke-linecap="square" stroke-linejoin="bevel" transform="matrix(2,0,0,2,0.0028,72)"
font-family="Ubuntu" font-size="11" font-weight="400" font-style="normal" 
>
</g>

<g fill="none" stroke="#000000" stroke-opacity="1" stroke-width="1" stroke-linecap="square" stroke-linejoin="bevel" transform="matrix(2,0,0,2,364.807,22)"
font-family="Ubuntu" font-size="11" font-weight="400" font-style="normal" 
>
</g>

<g fill="none" stroke="#000000" stroke-opacity="1" stroke-width="1" stroke-linecap="square" stroke-linejoin="bevel" transform="matrix(2,0,0,2,364.807,22)"
font-family="sans" font-size="11" font-weight="100" font-style="normal" 
>
</g>

<g fill="#000000" fill-opacity="1" stroke="#000000" stroke-opacity="1" stroke-width="1" stroke-linecap="square" stroke-linejoin="round" transform="matrix(2,0,0,2,364.807,22)"
font-family="sans" font-size="11" font-weight="100" font-style="normal" 
>
<path vector-effect="none" fill-rule="nonzero" d="M2.79688,2.98438 L3.70313,2.98438 L0.90625,12.0156 L0,12.0156 L2.79688,2.98438 M9.42188,6.14063 C9.67188,5.69271 9.96875,5.36458 10.3125,5.15625 C10.6563,4.94792 11.0625,4.84375 11.5313,4.84375 C12.1563,4.84375 12.638,5.0625 12.9766,5.5 C13.3151,5.9375 13.4844,6.5625 13.4844,7.375 L13.4844,11 L12.4844,11 L12.4844,7.40625 C12.4844,6.82292 12.3828,6.39323 12.1797,6.11719 C11.9766,5.84115 11.6667,5.70313 11.25,5.70313 C10.7396,5.70313 10.3359,5.8724 10.0391,6.21094 C9.74219,6.54948 9.59375,7.01042 9.59375,7.59375 L9.59375,11 L8.59375,11 L8.59375,7.40625 C8.59375,6.82292 8.49219,6.39323 8.28906,6.11719 C8.08594,5.84115 7.77083,5.70313 7.34375,5.70313 C6.84375,5.70313 6.44531,5.8724 6.14844,6.21094 C5.85156,6.54948 5.70313,7.01042 5.70313,7.59375 L5.70313,11 L4.70313,11 L4.70313,4.98438 L5.70313,4.98438 L5.70313,5.92188 C5.92188,5.54688 6.1901,5.27344 6.50781,5.10156 C6.82552,4.92969 7.19792,4.84375 7.625,4.84375 C8.0625,4.84375 8.4349,4.95313 8.74219,5.17188 C9.04948,5.39063 9.27604,5.71354 9.42188,6.14063 M15.4375,4.98438 L16.4375,4.98438 L16.4375,11 L15.4375,11 L15.4375,4.98438 M15.4375,2.64063 L16.4375,2.64063 L16.4375,3.89063 L15.4375,3.89063 L15.4375,2.64063 M17.9844,7.54688 L20.8906,7.54688 L20.8906,8.42188 L17.9844,8.42188 L17.9844,7.54688 M26.2969,5.15625 L26.2969,6.09375 C26.0156,5.94792 25.724,5.84115 25.4219,5.77344 C25.1198,5.70573 24.8073,5.67188 24.4844,5.67188 C23.9948,5.67188 23.6276,5.7474 23.3828,5.89844 C23.138,6.04948 23.0156,6.27083 23.0156,6.5625 C23.0156,6.79167 23.1042,6.97135 23.2813,7.10156 C23.4583,7.23177 23.8125,7.35938 24.3438,7.48438 L24.6719,7.5625 C25.3802,7.70833 25.8802,7.91927 26.1719,8.19531 C26.4635,8.47135 26.6094,8.85417 26.6094,9.34375 C26.6094,9.89583 26.3906,10.3359 25.9531,10.6641 C25.5156,10.9922 24.9063,11.1563 24.125,11.1563 C23.8021,11.1563 23.4661,11.125 23.1172,11.0625 C22.7682,11 22.401,10.9063 22.0156,10.7813 L22.0156,9.76563 C22.3802,9.95313 22.7396,10.0938 23.0938,10.1875 C23.4479,10.2813 23.8021,10.3281 24.1563,10.3281 C24.6146,10.3281 24.9688,10.2474 25.2188,10.0859 C25.4688,9.92448 25.5938,9.70313 25.5938,9.42188 C25.5938,9.15104 25.5052,8.94271 25.3281,8.79688 C25.151,8.65104 24.7552,8.51563 24.1406,8.39063 L23.7969,8.29688 C23.1823,8.17188 22.7396,7.97656 22.4688,7.71094 C22.1979,7.44531 22.0625,7.07813 22.0625,6.60938 C22.0625,6.04688 22.263,5.61198 22.6641,5.30469 C23.0651,4.9974 23.6354,4.84375 24.375,4.84375 C24.7396,4.84375 25.0833,4.86979 25.4063,4.92188 C25.7292,4.97396 26.026,5.05208 26.2969,5.15625 M28.0781,8.625 L28.0781,4.98438 L29.0625,4.98438 L29.0625,8.59375 C29.0625,9.15625 29.1745,9.58073 29.3984,9.86719 C29.6224,10.1536 29.9531,10.2969 30.3906,10.2969 C30.9323,10.2969 31.3568,10.1276 31.6641,9.78906 C31.9714,9.45052 32.125,8.98438 32.125,8.39063 L32.125,4.98438 L33.1094,4.98438 L33.1094,11 L32.125,11 L32.125,10.0781 C31.8854,10.4427 31.6068,10.7135 31.2891,10.8906 C30.9714,11.0677 30.6042,11.1563 30.1875,11.1563 C29.5,11.1563 28.9766,10.9401 28.6172,10.5078 C28.2578,10.0755 28.0781,9.44792 28.0781,8.625 M39.4688,8 C39.4688,7.27083 39.3177,6.70052 39.0156,6.28906 C38.7135,5.8776 38.3021,5.67188 37.7813,5.67188 C37.2604,5.67188 36.8516,5.8776 36.5547,6.28906 C36.2578,6.70052 36.1094,7.27083 36.1094,8 C36.1094,8.72917 36.2578,9.29948 36.5547,9.71094 C36.8516,10.1224 37.2604,10.3281 37.7813,10.3281 C38.3021,10.3281 38.7135,10.1224 39.0156,9.71094 C39.3177,9.29948 39.4688,8.72917 39.4688,8 M36.1094,5.89063 C36.3073,5.53646 36.5651,5.27344 36.8828,5.10156 C37.2005,4.92969 37.5833,4.84375 38.0313,4.84375 C38.7604,4.84375 39.3516,5.13281 39.8047,5.71094 C40.2578,6.28906 40.4844,7.05208 40.4844,8 C40.4844,8.94792 40.2578,9.71094 39.8047,10.2891 C39.3516,10.8672 38.7604,11.1563 38.0313,11.1563 C37.5833,11.1563 37.2005,11.0703 36.8828,10.8984 C36.5651,10.7266 36.3073,10.4583 36.1094,10.0938 L36.1094,11 L35.1094,11 L35.1094,2.64063 L36.1094,2.64063 L36.1094,5.89063 M45.9531,5.15625 L45.9531,6.09375 C45.6719,5.94792 45.3802,5.84115 45.0781,5.77344 C44.776,5.70573 44.4635,5.67188 44.1406,5.67188 C43.651,5.67188 43.2839,5.7474 43.0391,5.89844 C42.7943,6.04948 42.6719,6.27083 42.6719,6.5625 C42.6719,6.79167 42.7604,6.97135 42.9375,7.10156 C43.1146,7.23177 43.4688,7.35938 44,7.48438 L44.3281,7.5625 C45.0365,7.70833 45.5365,7.91927 45.8281,8.19531 C46.1198,8.47135 46.2656,8.85417 46.2656,9.34375 C46.2656,9.89583 46.0469,10.3359 45.6094,10.6641 C45.1719,10.9922 44.5625,11.1563 43.7813,11.1563 C43.4583,11.1563 43.1224,11.125 42.7734,11.0625 C42.4245,11 42.0573,10.9063 41.6719,10.7813 L41.6719,9.76563 C42.0365,9.95313 42.3958,10.0938 42.75,10.1875 C43.1042,10.2813 43.4583,10.3281 43.8125,10.3281 C44.2708,10.3281 44.625,10.2474 44.875,10.0859 C45.125,9.92448 45.25,9.70313 45.25,9.42188 C45.25,9.15104 45.1615,8.94271 44.9844,8.79688 C44.8073,8.65104 44.4115,8.51563 43.7969,8.39063 L43.4531,8.29688 C42.8385,8.17188 42.3958,7.97656 42.125,7.71094 C41.8542,7.44531 41.7188,7.07813 41.7188,6.60938 C41.7188,6.04688 41.9193,5.61198 42.3203,5.30469 C42.7214,4.9974 43.2917,4.84375 44.0313,4.84375 C44.3958,4.84375 44.7396,4.86979 45.0625,4.92188 C45.3854,4.97396 45.6823,5.05208 45.9531,5.15625 M52.1563,5.21875 L52.1563,6.14063 C51.8854,5.98438 51.6094,5.86719 51.3281,5.78906 C51.0469,5.71094 50.7604,5.67188 50.4688,5.67188 C49.8333,5.67188 49.3385,5.875 48.9844,6.28125 C48.6302,6.6875 48.4531,7.26042 48.4531,8 C48.4531,8.72917 48.6302,9.29688 48.9844,9.70313 C49.3385,10.1094 49.8333,10.3125 50.4688,10.3125 C50.7604,10.3125 51.0469,10.276 51.3281,10.2031 C51.6094,10.1302 51.8854,10.0156 52.1563,9.85938 L52.1563,10.7656 C51.8854,10.901 51.6016,11 51.3047,11.0625 C51.0078,11.125 50.6927,11.1563 50.3594,11.1563 C49.4531,11.1563 48.7344,10.8724 48.2031,10.3047 C47.6719,9.73698 47.4063,8.96875 47.4063,8 C47.4063,7.02083 47.6745,6.25 48.2109,5.6875 C48.7474,5.125 49.4844,4.84375 50.4219,4.84375 C50.7344,4.84375 51.0339,4.875 51.3203,4.9375 C51.6068,5 51.8854,5.09375 52.1563,5.21875 M57.3594,5.90625 C57.2552,5.84375 57.138,5.79688 57.0078,5.76563 C56.8776,5.73438 56.7344,5.71875 56.5781,5.71875 C56.0156,5.71875 55.5859,5.90104 55.2891,6.26563 C54.9922,6.63021 54.8438,7.15104 54.8438,7.82813 L54.8438,11 L53.8438,11 L53.8438,4.98438 L54.8438,4.98438 L54.8438,5.92188 C55.0417,5.55729 55.3073,5.28646 55.6406,5.10938 C55.974,4.93229 56.3802,4.84375 56.8594,4.84375 C56.9323,4.84375 57.0078,4.84635 57.0859,4.85156 C57.1641,4.85677 57.2552,4.86979 57.3594,4.89063 L57.3594,5.90625 M58.3906,4.98438 L59.3906,4.98438 L59.3906,11 L58.3906,11 L58.3906,4.98438 M58.3906,2.64063 L59.3906,2.64063 L59.3906,3.89063 L58.3906,3.89063 L58.3906,2.64063 M65.7656,8 C65.7656,7.27083 65.6146,6.70052 65.3125,6.28906 C65.0104,5.8776 64.599,5.67188 64.0781,5.67188 C63.5573,5.67188 63.1484,5.8776 62.8516,6.28906 C62.5547,6.70052 62.4063,7.27083 62.4063,8 C62.4063,8.72917 62.5547,9.29948 62.8516,9.71094 C63.1484,10.1224 63.5573,10.3281 64.0781,10.3281 C64.599,10.3281 65.0104,10.1224 65.3125,9.71094 C65.6146,9.29948 65.7656,8.72917 65.7656,8 M62.4063,5.89063 C62.6042,5.53646 62.862,5.27344 63.1797,5.10156 C63.4974,4.92969 63.8802,4.84375 64.3281,4.84375 C65.0573,4.84375 65.6484,5.13281 66.1016,5.71094 C66.5547,6.28906 66.7813,7.05208 66.7813,8 C66.7813,8.94792 66.5547,9.71094 66.1016,10.2891 C65.6484,10.8672 65.0573,11.1563 64.3281,11.1563 C63.8802,11.1563 63.4974,11.0703 63.1797,10.8984 C62.862,10.7266 62.6042,10.4583 62.4063,10.0938 L62.4063,11 L61.4063,11 L61.4063,2.64063 L62.4063,2.64063 L62.4063,5.89063 M73.5625,7.75 L73.5625,8.23438 L69.0156,8.23438 C69.0573,8.91146 69.2604,9.42708 69.625,9.78125 C69.9896,10.1354 70.5,10.3125 71.1563,10.3125 C71.5417,10.3125 71.9115,10.2656 72.2656,10.1719 C72.6198,10.0781 72.974,9.94271 73.3281,9.76563 L73.3281,10.6875 C72.974,10.8438 72.6094,10.9609 72.2344,11.0391 C71.8594,11.1172 71.4844,11.1563 71.1094,11.1563 C70.1406,11.1563 69.3776,10.8776 68.8203,10.3203 C68.263,9.76302 67.9844,9.00521 67.9844,8.04688 C67.9844,7.06771 68.25,6.28906 68.7813,5.71094 C69.3125,5.13281 70.0313,4.84375 70.9375,4.84375 C71.7396,4.84375 72.3776,5.10417 72.8516,5.625 C73.3255,6.14583 73.5625,6.85417 73.5625,7.75 M72.5625,7.45313 C72.5625,6.91146 72.4141,6.47917 72.1172,6.15625 C71.8203,5.83333 71.4271,5.67188 70.9375,5.67188 C70.3854,5.67188 69.9453,5.82813 69.6172,6.14063 C69.2891,6.45313 69.099,6.89063 69.0469,7.45313 L72.5625,7.45313 M78.6563,5.90625 C78.5521,5.84375 78.4349,5.79688 78.3047,5.76563 C78.1745,5.73438 78.0313,5.71875 77.875,5.71875 C77.3125,5.71875 76.8828,5.90104 76.5859,6.26563 C76.2891,6.63021 76.1406,7.15104 76.1406,7.82813 L76.1406,11 L75.1406,11 L75.1406,4.98438 L76.1406,4.98438 L76.1406,5.92188 C76.3385,5.55729 76.6042,5.28646 76.9375,5.10938 C77.2708,4.93229 77.6771,4.84375 78.1563,4.84375 C78.2292,4.84375 78.3047,4.84635 78.3828,4.85156 C78.4609,4.85677 78.5521,4.86979 78.6563,4.89063 L78.6563,5.90625"/>
</g>

<g fill="none" stroke="#000000" stroke-opacity="1" stroke-width="1" stroke-linecap="square" stroke-linejoin="bevel" transform="matrix(2,0,0,2,364.807,22)"
font-family="sans" font-size="11" font-weight="100" font-style="normal" 
>
</g>

<g fill="none" stroke="#000000" stroke-opacity="1" stroke-width="1" stroke-linecap="square" stroke-linejoin="bevel" transform="matrix(2,0,0,2,364.807,22)"
font-family="Ubuntu" font-size="11" font-weight="400" font-style="normal" 
>
</g>

<g fill="none" stroke="#000000" stroke-opacity="1" stroke-width="1" stroke-linecap="square" stroke-linejoin="bevel" transform="matrix(2,0,0,2,0.0028,72)"
font-family="Ubuntu" font-size="11" font-weight="400" font-style="normal" 
>
</g>

<g fill="none" stroke="#000000" stroke-opacity="1" stroke-width="1" stroke-linecap="square" stroke-linejoin="bevel" transform="matrix(2,0,0,2,0.0028,72)"
font-family="Ubuntu" font-size="11" font-weight="400" font-style="normal" 
>
</g>

<g fill="none" stroke="#000000" stroke-opacity="1" stroke-width="1" stroke-linecap="square" stroke-linejoin="bevel" transform="matrix(2,0,0,2,0.0028,72)"
font-family="Ubuntu" font-size="11" font-weight="400" font-style="normal" 
>
</g>

<g fill="none" stroke="#000000" stroke-opacity="1" stroke-width="1" stroke-linecap="square" stroke-linejoin="round" transform="matrix(2,0,0,2,0.0028,72)"
font-family="Ubuntu" font-size="11" font-weight="400" font-style="normal" 
>
<path vector-effect="none" fill-rule="evenodd" d="M117.43,-18 C127.88,-18 138.87,-18 149.63,-18 "/>
</g>

<g fill="none" stroke="#000000" stroke-opacity="1" stroke-width="1" stroke-linecap="square" stroke-linejoin="bevel" transform="matrix(2,0,0,2,0.0028,72)"
font-family="Ubuntu" font-size="11" font-weight="400" font-style="normal" 
>
</g>

<g fill="none" stroke="#000000" stroke-opacity="1" stroke-width="1" stroke-linecap="square" stroke-linejoin="bevel" transform="matrix(2,0,0,2,248.217,7)"
font-family="Ubuntu" font-size="11" font-weight="400" font-style="normal" 
>
</g>

<g fill="none" stroke="#000000" stroke-opacity="1" stroke-width="1" stroke-linecap="square" stroke-linejoin="bevel" transform="matrix(2,0,0,2,248.217,7)"
font-family="sans" font-size="11" font-weight="100" font-style="normal" 
>
</g>

<g fill="#000000" fill-opacity="1" stroke="#000000" stroke-opacity="1" stroke-width="1" stroke-linecap="square" stroke-linejoin="round" transform="matrix(2,0,0,2,248.217,7)"
font-family="sans" font-size="11" font-weight="100" font-style="normal" 
>
<path vector-effect="none" fill-rule="nonzero" d="M2.79688,2.98438 L3.70313,2.98438 L0.90625,12.0156 L0,12.0156 L2.79688,2.98438 M9.0625,5.21875 L9.0625,6.14063 C8.79167,5.98438 8.51563,5.86719 8.23438,5.78906 C7.95313,5.71094 7.66667,5.67188 7.375,5.67188 C6.73958,5.67188 6.24479,5.875 5.89063,6.28125 C5.53646,6.6875 5.35938,7.26042 5.35938,8 C5.35938,8.72917 5.53646,9.29688 5.89063,9.70313 C6.24479,10.1094 6.73958,10.3125 7.375,10.3125 C7.66667,10.3125 7.95313,10.276 8.23438,10.2031 C8.51563,10.1302 8.79167,10.0156 9.0625,9.85938 L9.0625,10.7656 C8.79167,10.901 8.50781,11 8.21094,11.0625 C7.91406,11.125 7.59896,11.1563 7.26563,11.1563 C6.35938,11.1563 5.64063,10.8724 5.10938,10.3047 C4.57813,9.73698 4.3125,8.96875 4.3125,8 C4.3125,7.02083 4.58073,6.25 5.11719,5.6875 C5.65365,5.125 6.39063,4.84375 7.32813,4.84375 C7.64063,4.84375 7.9401,4.875 8.22656,4.9375 C8.51302,5 8.79167,5.09375 9.0625,5.21875 M15.7813,7.375 L15.7813,11 L14.7969,11 L14.7969,7.40625 C14.7969,6.83333 14.6875,6.40625 14.4688,6.125 C14.25,5.84375 13.9167,5.70313 13.4688,5.70313 C12.9375,5.70313 12.5182,5.8724 12.2109,6.21094 C11.9036,6.54948 11.75,7.01042 11.75,7.59375 L11.75,11 L10.75,11 L10.75,2.64063 L11.75,2.64063 L11.75,5.92188 C11.9792,5.55729 12.2552,5.28646 12.5781,5.10938 C12.901,4.93229 13.2708,4.84375 13.6875,4.84375 C14.375,4.84375 14.8958,5.05729 15.25,5.48438 C15.6042,5.91146 15.7813,6.54167 15.7813,7.375 M20.4844,7.96875 C19.6927,7.96875 19.1432,8.0625 18.8359,8.25 C18.5286,8.4375 18.375,8.75 18.375,9.1875 C18.375,9.53125 18.4896,9.80729 18.7188,10.0156 C18.9479,10.224 19.2604,10.3281 19.6563,10.3281 C20.2083,10.3281 20.6484,10.1328 20.9766,9.74219 C21.3047,9.35156 21.4688,8.83854 21.4688,8.20313 L21.4688,7.96875 L20.4844,7.96875 M22.4531,7.5625 L22.4531,11 L21.4688,11 L21.4688,10.0938 C21.25,10.4583 20.9714,10.7266 20.6328,10.8984 C20.2943,11.0703 19.8802,11.1563 19.3906,11.1563 C18.776,11.1563 18.2865,10.9844 17.9219,10.6406 C17.5573,10.2969 17.375,9.83333 17.375,9.25 C17.375,8.57292 17.6016,8.0625 18.0547,7.71875 C18.5078,7.375 19.1875,7.20313 20.0938,7.20313 L21.4688,7.20313 L21.4688,7.10938 C21.4688,6.65104 21.3203,6.29688 21.0234,6.04688 C20.7266,5.79688 20.3073,5.67188 19.7656,5.67188 C19.4219,5.67188 19.0859,5.71354 18.7578,5.79688 C18.4297,5.88021 18.1146,6.00521 17.8125,6.17188 L17.8125,5.26563 C18.1771,5.11979 18.5313,5.01302 18.875,4.94531 C19.2188,4.8776 19.5469,4.84375 19.8594,4.84375 C20.7344,4.84375 21.3854,5.06771 21.8125,5.51563 C22.2396,5.96354 22.4531,6.64583 22.4531,7.5625 M25.4688,3.28125 L25.4688,4.98438 L27.5,4.98438 L27.5,5.75 L25.4688,5.75 L25.4688,9.01563 C25.4688,9.50521 25.5365,9.82031 25.6719,9.96094 C25.8073,10.1016 26.0781,10.1719 26.4844,10.1719 L27.5,10.1719 L27.5,11 L26.4844,11 C25.724,11 25.1979,10.8568 24.9063,10.5703 C24.6146,10.2839 24.4688,9.76563 24.4688,9.01563 L24.4688,5.75 L23.75,5.75 L23.75,4.98438 L24.4688,4.98438 L24.4688,3.28125 L25.4688,3.28125"/>
</g>

<g fill="none" stroke="#000000" stroke-opacity="1" stroke-width="1" stroke-linecap="square" stroke-linejoin="bevel" transform="matrix(2,0,0,2,248.217,7)"
font-family="sans" font-size="11" font-weight="100" font-style="normal" 
>
</g>

<g fill="none" stroke="#000000" stroke-opacity="1" stroke-width="1" stroke-linecap="square" stroke-linejoin="bevel" transform="matrix(2,0,0,2,248.217,7)"
font-family="Ubuntu" font-size="11" font-weight="400" font-style="normal" 
>
</g>

<g fill="none" stroke="#000000" stroke-opacity="1" stroke-width="1" stroke-linecap="square" stroke-linejoin="bevel" transform="matrix(2,0,0,2,0.0028,72)"
font-family="Ubuntu" font-size="11" font-weight="400" font-style="normal" 
>
</g>

<g fill="#000000" fill-opacity="1" stroke="#000000" stroke-opacity="1" stroke-width="1" stroke-linecap="square" stroke-linejoin="round" transform="matrix(2,0,0,2,0.0028,72)"
font-family="Ubuntu" font-size="11" font-weight="400" font-style="normal" 
>
<path vector-effect="none" fill-rule="evenodd" d="M149.63,-18 L149.63,-14.4195 L159.86,-18 L149.63,-21.5805 L149.63,-18"/>
</g>

<g fill="none" stroke="#000000" stroke-opacity="1" stroke-width="1" stroke-linecap="square" stroke-linejoin="bevel" transform="matrix(2,0,0,2,0.0028,72)"
font-family="Ubuntu" font-size="11" font-weight="400" font-style="normal" 
>
</g>

<g fill="none" stroke="#000000" stroke-opacity="1" stroke-width="1" stroke-linecap="square" stroke-linejoin="bevel" transform="matrix(1,0,0,1,0,0)"
font-family="Ubuntu" font-size="11" font-weight="400" font-style="normal" 
>
</g>
</g>
</svg>
