<?xml version="1.0" encoding="UTF-8" standalone="no"?>
<!DOCTYPE svg PUBLIC "-//W3C//DTD SVG 1.1//EN" "http://www.w3.org/Graphics/SVG/1.1/DTD/svg11.dtd">
<svg width="100%" height="100%" viewBox="0 0 1550 1646" version="1.1" xmlns="http://www.w3.org/2000/svg" xmlns:xlink="http://www.w3.org/1999/xlink" xml:space="preserve" xmlns:serif="http://www.serif.com/" style="fill-rule:evenodd;clip-rule:evenodd;stroke-linejoin:round;stroke-miterlimit:1.5;">
    <g transform="matrix(1,0,0,1,-1786,0)">
        <g id="Future-distance" serif:id="Future distance" transform="matrix(4.92583,0,0,8.19962,-21278.5,-6723.1)">
            <rect x="4682.55" y="819.928" width="314.369" height="200.656" style="fill:none;"/>
            <clipPath id="_clip1">
                <rect x="4682.55" y="819.928" width="314.369" height="200.656"/>
            </clipPath>
            <g clip-path="url(#_clip1)">
                <g transform="matrix(0.203011,0,0,0.121957,4319.79,819.928)">
                    <rect x="1783.64" y="0" width="1548.53" height="1645.31" style="fill:white;"/>
                </g>
                <g transform="matrix(0.203011,8.46246e-19,1.40867e-18,0.121957,4619.13,747.002)">
                    <g transform="matrix(1,-6.93889e-18,-6.93889e-18,1,311.502,597.971)">
                        <path d="M544.705,882.88L527.535,901.523L552.751,904.073L544.705,882.88Z"/>
                        <path d="M583.18,874.948L606.338,885.25L584.202,897.595L583.18,874.948Z"/>
                        <path d="M544.49,895.086C558.451,890.508 573.092,887.438 588.22,886.067" style="fill:none;stroke:black;stroke-width:7.56px;"/>
                    </g>
                </g>
                <g transform="matrix(0.203011,0,0,0.165397,4713.52,668.786)">
                    <path d="M910.23,935.849L910.23,2096.88" style="fill:none;stroke:rgb(129,129,129);stroke-width:5.04px;stroke-dasharray:5.04,5.04;"/>
                </g>
                <g id="Wall-reference" serif:id="Wall reference" transform="matrix(0.203011,0,0,0.121957,4730.32,754.308)">
                    <g transform="matrix(1,0,0,1.01879,-539.152,6.251)">
                        <path d="M910.23,935.849L910.23,2096.88" style="fill:none;stroke:rgb(49,182,53);stroke-width:5.95px;stroke-dasharray:5.95,5.95;"/>
                    </g>
                    <g transform="matrix(-2.02178e-16,1,-1.10061,-1.83697e-16,2098.41,711.682)">
                        <path d="M910.23,935.849L910.23,2096.88" style="fill:none;stroke:rgb(49,182,53);stroke-width:5.71px;stroke-dasharray:5.71,5.71;"/>
                    </g>
                </g>
                <g id="Robot-reference" serif:id="Robot reference" transform="matrix(0.183991,-0.0515412,0.0857963,0.11053,4598.22,791.966)">
                    <g transform="matrix(1,-5.49054e-17,-1.18547e-16,1.12316,-539.152,-158.784)">
                        <path d="M910.23,935.849L910.23,2096.88" style="fill:none;stroke:rgb(81,111,213);stroke-width:5.65px;stroke-dasharray:5.65,5.65;"/>
                    </g>
                    <g transform="matrix(-9.16649e-17,1,-1.10338,-2.39208e-16,2044.2,711.682)">
                        <path d="M910.23,935.849L910.23,2096.88" style="fill:none;stroke:rgb(81,111,213);stroke-width:5.7px;stroke-dasharray:5.7,5.7;"/>
                    </g>
                </g>
                <g id="Robot">
                    <g transform="matrix(0.0515897,-0.0149821,0.0288223,0.0358171,4757.3,935.39)">
                        <rect x="208.458" y="801.854" width="100.616" height="151.736" style="stroke:black;stroke-width:19.12px;"/>
                    </g>
                    <g transform="matrix(0.0515897,-0.0149821,0.0288223,0.0358171,4787.75,926.924)">
                        <rect x="208.458" y="801.854" width="100.616" height="151.736" style="stroke:black;stroke-width:19.12px;"/>
                    </g>
                    <g transform="matrix(0.182708,-0.0531621,0.0616037,0.0764073,4532.16,885.176)">
                        <rect x="907.377" y="1395.13" width="134.075" height="299.529" style="fill:rgb(237,237,237);stroke:black;stroke-width:4.15px;"/>
                    </g>
                    <g transform="matrix(0.181283,-0.0548943,0.111015,0.132307,4569.13,840.796)">
                        <g transform="matrix(0.892972,0.370495,-0.450112,0.73502,575.09,80.8837)">
                            <path d="M595.166,1095.21L587.285,1041.29L625.939,1079.7L595.166,1095.21Z"/>
                            <path d="M624.434,1114.99C624.434,1114.99 615.173,1096.62 605.899,1078.22" style="fill:none;stroke:black;stroke-width:18.43px;"/>
                        </g>
                    </g>
                </g>
                <g id="Robot1" serif:id="Robot">
                    <g transform="matrix(0.0515897,-0.0149821,0.0288223,0.0358171,4757.3,935.39)">
                        <rect x="208.458" y="801.854" width="100.616" height="151.736" style="stroke:black;stroke-width:19.12px;"/>
                    </g>
                    <g transform="matrix(0.0515897,-0.0149821,0.0288223,0.0358171,4787.75,926.924)">
                        <rect x="208.458" y="801.854" width="100.616" height="151.736" style="stroke:black;stroke-width:19.12px;"/>
                    </g>
                    <g transform="matrix(0.182708,-0.0531621,0.0616037,0.0764073,4532.16,885.176)">
                        <rect x="907.377" y="1395.13" width="134.075" height="299.529" style="fill:rgb(237,237,237);stroke:black;stroke-width:4.15px;"/>
                    </g>
                    <g transform="matrix(0.181283,-0.0548943,0.111015,0.132307,4569.13,840.796)">
                        <g transform="matrix(0.892972,0.370495,-0.450112,0.73502,575.09,80.8837)">
                            <path d="M595.166,1095.21L587.285,1041.29L625.939,1079.7L595.166,1095.21Z"/>
                            <path d="M624.434,1114.99C624.434,1114.99 615.173,1096.62 605.899,1078.22" style="fill:none;stroke:black;stroke-width:18.43px;"/>
                        </g>
                    </g>
                </g>
                <g id="Robot2" serif:id="Robot" transform="matrix(0.999604,0.0169055,-0.0468441,0.999604,-11.7516,-155.423)">
                    <g opacity="0.5">
                        <g transform="matrix(0.0515897,-0.0149821,0.0288223,0.0358171,4757.3,935.39)">
                            <rect x="208.458" y="801.854" width="100.616" height="151.736" style="stroke:black;stroke-width:19.12px;"/>
                        </g>
                        <g transform="matrix(0.0515897,-0.0149821,0.0288223,0.0358171,4787.75,926.924)">
                            <rect x="208.458" y="801.854" width="100.616" height="151.736" style="stroke:black;stroke-width:19.12px;"/>
                        </g>
                        <g transform="matrix(0.182708,-0.0531621,0.0616037,0.0764073,4532.16,885.176)">
                            <rect x="907.377" y="1395.13" width="134.075" height="299.529" style="fill:rgb(237,237,237);stroke:black;stroke-width:4.15px;"/>
                        </g>
                        <g transform="matrix(0.181283,-0.0548943,0.111015,0.132307,4569.13,840.796)">
                            <g transform="matrix(0.905285,0.349664,-0.424805,0.745155,540.258,638.437)">
                                <path d="M307.894,483.516L301.533,429.399L339.091,468.876L307.894,483.516Z"/>
                                <path d="M336.593,504.114C336.593,504.114 327.853,485.489 319.101,466.837" style="fill:none;stroke:black;stroke-width:18.43px;"/>
                            </g>
                        </g>
                    </g>
                </g>
                <g transform="matrix(0.203011,0,0,0.121957,4620.79,753.557)">
                    <text x="844.84px" y="1406.62px" style="font-family:'ArialMT', 'Arial', sans-serif;font-size:50px;">α</text>
                </g>
                <g id="Di-line" serif:id="Di line" transform="matrix(0.203011,0,0,0.121957,4619.64,754.809)">
                    <g transform="matrix(1,-0,-0,1,308.967,533.949)">
                        <path d="M627.985,1229.27L627.971,1252.61" style="fill:none;stroke:black;stroke-width:5.83px;stroke-linejoin:miter;stroke-miterlimit:10;"/>
                        <path d="M1280.16,1229.67L1280.15,1253" style="fill:none;stroke:black;stroke-width:5.83px;stroke-linejoin:miter;stroke-miterlimit:10;"/>
                        <path d="M627.978,1240.94C673.401,1240.97 1234.73,1241.31 1280.16,1241.34" style="fill:none;stroke:black;stroke-width:5.83px;"/>
                    </g>
                </g>
                <g id="Di-line1" serif:id="Di line" transform="matrix(0.295096,3.38223e-05,5.63011e-05,0.121957,4472.94,659.573)">
                    <g transform="matrix(0.68795,-0.000190789,-0.000190789,1,709.438,1314.66)">
                        <path d="M329.515,448.625L329.501,471.959" style="fill:none;stroke:black;stroke-width:5.83px;stroke-linejoin:miter;stroke-miterlimit:10;"/>
                        <path d="M1280.16,449.207L1280.15,472.54" style="fill:none;stroke:black;stroke-width:5.83px;stroke-linejoin:miter;stroke-miterlimit:10;"/>
                        <path d="M329.508,460.292C385.329,460.326 1224.34,460.839 1280.16,460.873" style="fill:none;stroke:black;stroke-width:5.83px;"/>
                    </g>
                </g>
                <g id="Di-line2" serif:id="Di line" transform="matrix(0.0866006,-4.2757e-05,-7.1174e-05,0.121957,4667.9,654.928)">
                    <g transform="matrix(2.34422,0.000821865,0.000821865,1,168.079,1353)">
                        <path d="M329.515,409.951L329.501,433.284" style="fill:none;stroke:black;stroke-width:5.83px;stroke-linejoin:miter;stroke-miterlimit:10;"/>
                        <path d="M604.376,410.119L604.362,433.452" style="fill:none;stroke:black;stroke-width:5.83px;stroke-linejoin:miter;stroke-miterlimit:10;"/>
                        <path d="M329.508,421.618C357.396,421.635 576.481,421.769 604.369,421.786" style="fill:none;stroke:black;stroke-width:5.83px;"/>
                    </g>
                </g>
                <g transform="matrix(0.203011,0,0,0.121957,4627.8,821.165)">
                    <text x="1198.99px" y="1209.85px" style="font-family:'ArialMT', 'Arial', sans-serif;font-size:50px;">Di</text>
                </g>
                <g transform="matrix(0.241843,-0.0108912,-0.0181343,0.127043,4536.36,718.619)">
                    <path d="M843.555,1312.18L977.117,1323.63" style="fill:none;stroke:rgb(129,129,129);stroke-width:5.66px;stroke-dasharray:5.66,5.66;"/>
                </g>
                <g transform="matrix(0.203011,0,0,0.121957,4597.51,725.982)">
                    <text x="1198.99px" y="1209.85px" style="font-family:'ArialMT', 'Arial', sans-serif;font-size:50px;">Df</text>
                </g>
                <g transform="matrix(0.203011,0,0,0.121957,4531.44,720.668)">
                    <text x="1198.99px" y="1209.85px" style="font-family:'ArialMT', 'Arial', sans-serif;font-size:50px;">Z</text>
                </g>
                <g transform="matrix(0.203011,0,0,0.121957,4494.09,774.89)">
                    <text x="1198.99px" y="1209.85px" style="font-family:'ArialMT', 'Arial', sans-serif;font-size:50px;">L</text>
                </g>
                <g id="Wall" transform="matrix(0.203011,0,0,0.165397,4763.91,668.786)">
                    <path d="M910.23,935.849L910.23,2096.88" style="fill:none;stroke:black;stroke-width:19.38px;"/>
                </g>
                <g id="Di-line3" serif:id="Di line" transform="matrix(0.159704,-1.59064e-05,-2.64781e-05,0.121957,4543.25,687.877)">
                    <g transform="matrix(1.27117,0.000165795,0.000165795,1,871.253,1082.88)">
                        <path d="M169.394,458.345L148.455,468.64" style="fill:none;stroke:black;stroke-width:5.83px;stroke-linejoin:miter;stroke-miterlimit:10;"/>
                        <path d="M496.186,1123.07L475.246,1133.37" style="fill:none;stroke:black;stroke-width:5.83px;stroke-linejoin:miter;stroke-miterlimit:10;"/>
                        <path d="M158.924,463.493C180.418,507.212 464.223,1084.5 485.716,1128.22" style="fill:none;stroke:black;stroke-width:5.83px;"/>
                    </g>
                </g>
                <g id="Di-line4" serif:id="Di line" transform="matrix(0.0686159,-4.93627e-05,-8.217e-05,0.121957,4833.92,768.744)">
                    <g transform="matrix(2.95866,0.00119754,0.00119754,1,-2208.3,418.8)">
                        <path d="M1064.45,1343.15L1064.44,1366.48" style="fill:none;stroke:black;stroke-width:5.83px;stroke-linejoin:miter;stroke-miterlimit:10;"/>
                        <path d="M1281.02,1343.28L1281.01,1366.61" style="fill:none;stroke:black;stroke-width:5.83px;stroke-linejoin:miter;stroke-miterlimit:10;"/>
                        <path d="M1064.44,1354.82C1088.71,1354.83 1256.75,1354.93 1281.01,1354.95" style="fill:none;stroke:black;stroke-width:5.83px;"/>
                    </g>
                </g>
                <g transform="matrix(0.203011,0,0,0.121957,4671.22,835.443)">
                    <text x="1198.99px" y="1209.85px" style="font-family:'ArialMT', 'Arial', sans-serif;font-size:50px;">Dr</text>
                </g>
            </g>
        </g>
    </g>
</svg>
