<?xml version="1.0" encoding="UTF-8" standalone="no"?>
<!DOCTYPE svg PUBLIC "-//W3C//DTD SVG 1.1//EN" "http://www.w3.org/Graphics/SVG/1.1/DTD/svg11.dtd">
<svg width="100%" height="100%" viewBox="0 0 1550 1646" version="1.1" xmlns="http://www.w3.org/2000/svg" xmlns:xlink="http://www.w3.org/1999/xlink" xml:space="preserve" xmlns:serif="http://www.serif.com/" style="fill-rule:evenodd;clip-rule:evenodd;stroke-linejoin:round;stroke-miterlimit:1.5;">
    <g transform="matrix(1,0,0,1,-7,-3747)">
        <g id="Turning" transform="matrix(4.92583,0,0,8.19962,-23057.9,-2975.83)">
            <rect x="4682.55" y="819.928" width="314.369" height="200.656" style="fill:none;"/>
            <clipPath id="_clip1">
                <rect x="4682.55" y="819.928" width="314.369" height="200.656"/>
            </clipPath>
            <g clip-path="url(#_clip1)">
                <g transform="matrix(0.203221,0,0,0.122874,4681,359.482)">
                    <rect x="6.012" y="3751.18" width="1548.53" height="1629.14" style="fill:white;"/>
                </g>
                <g transform="matrix(0.257219,0.0820925,-0.12791,0.16656,4849.23,574.192)">
                    <g transform="matrix(0.633892,-0.312427,0.292439,0.588076,68.3385,1441.49)">
                        <path d="M1466.33,874.336L1521.5,902.242L1466.07,929.632L1466.33,874.336Z" style="fill:rgb(255,0,0);"/>
                        <path d="M840.556,899.069C840.556,899.069 1326.27,901.332 1477.26,902.036" style="fill:none;stroke:rgb(255,0,0);stroke-width:18.43px;"/>
                    </g>
                </g>
                <g transform="matrix(0.139589,0.0626078,-0.0430942,0.0972641,4805.14,693.222)">
                    <g transform="matrix(1.21325,-0.780954,0.322925,1.04601,-397.955,1558.53)">
                        <path d="M1465.2,88.586L1521.5,63.039L1508.16,123.406L1465.2,88.586Z" style="fill:rgb(255,0,0);"/>
                        <path d="M842.132,901.153C842.132,901.153 1365.88,255.025 1493.64,97.404" style="fill:none;stroke:rgb(255,0,0);stroke-width:18.43px;"/>
                    </g>
                </g>
                <g transform="matrix(0.203011,0,0,0.165397,4669.11,668.786)">
                    <path d="M910.23,935.849L910.23,2096.88" style="fill:none;stroke:rgb(129,129,129);stroke-width:5.04px;stroke-dasharray:5.04,5.04;"/>
                </g>
                <g id="Robot" transform="matrix(0.896215,0.2665,-0.738457,0.896215,1249.51,-1204.49)">
                    <g transform="matrix(0.0515897,-0.0149821,0.0288223,0.0358171,4757.3,935.39)">
                        <rect x="208.458" y="801.854" width="100.616" height="151.736" style="stroke:black;stroke-width:19.12px;"/>
                    </g>
                    <g transform="matrix(0.0515897,-0.0149821,0.0288223,0.0358171,4787.75,926.924)">
                        <rect x="208.458" y="801.854" width="100.616" height="151.736" style="stroke:black;stroke-width:19.12px;"/>
                    </g>
                    <g transform="matrix(0.182708,-0.0531621,0.0616037,0.0764073,4532.16,885.176)">
                        <rect x="907.377" y="1395.13" width="134.075" height="299.529" style="fill:rgb(237,237,237);stroke:black;stroke-width:4.15px;"/>
                    </g>
                    <g transform="matrix(0.181283,-0.0548943,0.111015,0.132307,4569.13,840.796)">
                        <g transform="matrix(0.999974,0.00597335,-0.00725699,0.823095,-205.673,357.699)">
                            <path d="M825.842,903.611L842.697,851.795L860.303,903.361L825.842,903.611Z"/>
                            <path d="M843.296,934.325C843.296,934.325 843.147,913.751 842.997,893.148" style="fill:none;stroke:black;stroke-width:18.43px;"/>
                        </g>
                    </g>
                </g>
                <g transform="matrix(0.203011,0,0,0.121957,4644.6,747.881)">
                    <text x="1198.99px" y="1209.85px" style="font-family:'ArialMT', 'Arial', sans-serif;font-size:50px;">A</text>
                </g>
                <g transform="matrix(0.203011,0,0,0.121957,4654.31,780.42)">
                    <text x="1198.99px" y="1209.85px" style="font-family:'ArialMT', 'Arial', sans-serif;font-size:50px;">B</text>
                </g>
                <g id="Wall" transform="matrix(0.120913,0,0,0.0638867,4838.63,881.64)">
                    <path d="M910.23,935.849L910.23,2096.88" style="fill:none;stroke:black;stroke-width:41.17px;"/>
                </g>
                <g transform="matrix(0.203011,0,0,0.121957,4321.67,639.657)">
                    <path d="M3088.6,2474.41L3298.52,2474.41" style="fill:none;stroke:black;stroke-width:23.09px;stroke-linecap:square;"/>
                </g>
            </g>
        </g>
    </g>
</svg>
